<svg width="9" height="11" viewBox="0 0 9 11" fill="none" xmlns="http://www.w3.org/2000/svg">
<path d="M0.0955687 1.58042C0.0489595 1.2095 0.0023498 0.838588 0 0.376504C0.306712 0.178732 0.569161 0.0721279 0.889979 0C1.63264 0.395197 2.31694 0.755923 3.04945 1.15796C3.31917 1.31509 3.54066 1.4309 3.80006 1.59533C4.29995 1.92754 4.76194 2.21115 5.26005 2.54224C5.95551 3.13939 6.61484 3.68903 7.30367 4.28442C8.54072 5.7719 8.56905 6.07584 7.58191 7.49276C6.85751 8.01994 6.17708 8.52492 5.45166 9.03069C5.21729 9.17362 5.0279 9.31576 4.78645 9.45501C4.01914 9.8225 3.30388 10.1929 2.54096 10.5628C2.0829 10.7159 1.67249 10.8696 1.21103 10.9976C0.524048 10.7519 0.41434 10.2352 0.519976 9.57038C0.872063 9.24274 1.16597 8.91899 1.51465 8.69002C1.93125 8.41645 2.39472 8.22396 2.88542 7.99459C3.79355 7.45565 4.65414 6.91846 5.56459 6.37412C5.75524 6.22163 5.89602 6.07628 6.10432 5.86123C5.49886 5.39224 4.97172 4.98392 4.42536 4.51297C3.62222 4.00749 2.8383 3.56464 2.0408 3.08785C2.02722 3.0539 1.95901 3.04322 1.9297 3.00979C1.87245 2.97025 1.84451 2.96414 1.77956 2.91808C1.52119 2.75788 1.29983 2.63763 1.03219 2.47564C0.787279 2.28751 0.588657 2.14111 0.369723 1.95693C0.264801 1.80622 0.180189 1.69332 0.0955687 1.58042Z" fill="#330C0A"/>
</svg>
