<svg width="11" height="9" viewBox="0 0 11 9" fill="none" xmlns="http://www.w3.org/2000/svg">
<path d="M9.41763 0.0955686C9.78854 0.0489594 10.1595 0.00234976 10.6215 -1.64575e-08C10.8193 0.306712 10.9259 0.569161 10.998 0.889979C10.6028 1.63264 10.2421 2.31694 9.84009 3.04945C9.68296 3.31917 9.56714 3.54066 9.40271 3.80006C9.0705 4.29995 8.7869 4.76194 8.4558 5.26005C7.85866 5.95551 7.30902 6.61484 6.71363 7.30367C5.22614 8.54072 4.92221 8.56905 3.50529 7.58191C2.97811 6.85751 2.47312 6.17708 1.96736 5.45166C1.82443 5.21729 1.68229 5.0279 1.54303 4.78645C1.17555 4.01914 0.805171 3.30388 0.435285 2.54095C0.282126 2.0829 0.12847 1.67249 0.000443406 1.21102C0.246195 0.524048 0.76288 0.414339 1.42767 0.519976C1.75531 0.872062 2.07905 1.16597 2.30802 1.51465C2.5816 1.93125 2.77409 2.39472 3.00346 2.88542C3.5424 3.79355 4.07958 4.65414 4.62392 5.56459C4.77642 5.75524 4.92176 5.89602 5.13681 6.10432C5.60581 5.49886 6.01413 4.97172 6.48508 4.42536C6.99056 3.62222 7.43341 2.8383 7.9102 2.0408C7.94415 2.02722 7.95482 1.95901 7.98825 1.9297C8.0278 1.87245 8.03391 1.84451 8.07996 1.77956C8.24016 1.52118 8.36042 1.29983 8.52241 1.03219C8.71053 0.787278 8.85693 0.588657 9.04112 0.369723C9.19183 0.264801 9.30472 0.180189 9.41763 0.0955686Z" fill="#330C0A"/>
</svg>
