<svg width="55" height="55" viewBox="0 0 55 55" fill="none" xmlns="http://www.w3.org/2000/svg">
<path d="M27.7293 42.5104L27.5002 42.7396L27.2481 42.5104C16.3627 32.6333 9.16683 26.1021 9.16683 19.4792C9.16683 14.8958 12.6043 11.4583 17.1877 11.4583C20.7168 11.4583 24.1543 13.75 25.3689 16.8667H29.6314C30.846 13.75 34.2835 11.4583 37.8127 11.4583C42.396 11.4583 45.8335 14.8958 45.8335 19.4792C45.8335 26.1021 38.6377 32.6333 27.7293 42.5104ZM37.8127 6.875C33.8252 6.875 29.9981 8.73125 27.5002 11.6417C25.0022 8.73125 21.1752 6.875 17.1877 6.875C10.1293 6.875 4.5835 12.3979 4.5835 19.4792C4.5835 28.1187 12.3752 35.2 24.1772 45.9021L27.5002 48.9271L30.8231 45.9021C42.6252 35.2 50.4168 28.1187 50.4168 19.4792C50.4168 12.3979 44.871 6.875 37.8127 6.875Z" fill="#FF840A"/>
</svg>
