<svg width="55" height="55" viewBox="0 0 55 55" fill="none" xmlns="http://www.w3.org/2000/svg">
<path d="M22.9167 4.58337V9.16671M32.0833 4.58337V9.16671M36.6667 18.3334C37.2745 18.3334 37.8574 18.5748 38.2871 19.0046C38.7169 19.4344 38.9583 20.0173 38.9583 20.625V38.9584C38.9583 41.3895 37.9926 43.7211 36.2735 45.4402C34.5544 47.1593 32.2228 48.125 29.7917 48.125H16.0417C13.6105 48.125 11.2789 47.1593 9.55985 45.4402C7.84077 43.7211 6.875 41.3895 6.875 38.9584V20.625C6.875 20.0173 7.11644 19.4344 7.54621 19.0046C7.97598 18.5748 8.55888 18.3334 9.16667 18.3334H41.25C43.6812 18.3334 46.0127 19.2991 47.7318 21.0182C49.4509 22.7373 50.4167 25.0689 50.4167 27.5C50.4167 29.9312 49.4509 32.2628 47.7318 33.9819C46.0127 35.7009 43.6812 36.6667 41.25 36.6667H38.9583M13.75 4.58337V9.16671" stroke="#FF840A" stroke-width="4.58333" stroke-linecap="round" stroke-linejoin="round"/>
</svg>
