<svg width="55" height="55" viewBox="0 0 55 55" fill="none" xmlns="http://www.w3.org/2000/svg">
<path d="M22.4881 36.4467L20.625 42.9688L18.7619 36.4467C18.2803 34.762 17.3775 33.2278 16.1385 31.9888C14.8995 30.7498 13.3653 29.847 11.6806 29.3654L5.15625 27.5L11.6783 25.6369C13.363 25.1553 14.8973 24.2525 16.1362 23.0135C17.3752 21.7745 18.278 20.2403 18.7596 18.5556L20.625 12.0313L22.4881 18.5533C22.9697 20.238 23.8725 21.7723 25.1115 23.0112C26.3505 24.2502 27.8847 25.153 29.5694 25.6346L36.0938 27.5L29.5717 29.3631C27.887 29.8447 26.3528 30.7475 25.1138 31.9865C23.8748 33.2255 22.972 34.7597 22.4904 36.4444M41.8435 19.9719L41.25 22.3438L40.6565 19.9719C40.3156 18.6125 39.6123 17.3711 38.6215 16.38C37.6307 15.3888 36.3896 14.685 35.0304 14.3435L32.6563 13.75L35.0304 13.1565C36.3896 12.815 37.6307 12.1112 38.6215 11.12C39.6123 10.1289 40.3156 8.88748 40.6565 7.52813L41.25 5.15625L41.8435 7.52813C42.1846 8.88776 42.8883 10.1294 43.8795 11.1205C44.8707 12.1117 46.1122 12.8154 47.4719 13.1565L49.8438 13.75L47.4719 14.3435C46.1122 14.6846 44.8707 15.3883 43.8795 16.3795C42.8883 17.3706 42.1846 18.6122 41.8435 19.9719ZM38.7154 47.1327L37.8125 49.8438L36.9096 47.1327C36.6564 46.3733 36.23 45.6833 35.664 45.1173C35.098 44.5513 34.4079 44.1248 33.6485 43.8717L30.9375 42.9688L33.6485 42.0658C34.4079 41.8127 35.098 41.3862 35.664 40.8202C36.23 40.2542 36.6564 39.5642 36.9096 38.8048L37.8125 36.0938L38.7154 38.8048C38.9686 39.5642 39.395 40.2542 39.961 40.8202C40.527 41.3862 41.2171 41.8127 41.9765 42.0658L44.6875 42.9688L41.9765 43.8717C41.2171 44.1248 40.527 44.5513 39.961 45.1173C39.395 45.6833 38.9686 46.3733 38.7154 47.1327Z" stroke="#FF840A" stroke-width="3.4375" stroke-linecap="round" stroke-linejoin="round"/>
</svg>
