<svg width="30" height="30" viewBox="0 0 30 30" fill="none" xmlns="http://www.w3.org/2000/svg">
<path d="M20.25 2.5C24.25 2.5 27.5 5.75 27.5 9.75V20.25C27.5 22.1728 26.7366 24.0173 25.377 25.377C24.0173 26.7366 22.1728 27.5 20.25 27.5H9.75C5.75 27.5 2.5 24.25 2.5 20.25V9.75C2.5 7.82718 3.26341 5.98269 4.62305 4.62305C5.98269 3.26341 7.82718 2.5 9.75 2.5H20.25ZM9.5 5C8.30653 5 7.16227 5.47445 6.31836 6.31836C5.47445 7.16227 5 8.30653 5 9.5V20.5C5 22.9875 7.0125 25 9.5 25H20.5C21.6935 25 22.8377 24.5256 23.6816 23.6816C24.5256 22.8377 25 21.6935 25 20.5V9.5C25 7.0125 22.9875 5 20.5 5H9.5ZM15 8.75C16.6576 8.75 18.2468 9.40895 19.4189 10.5811C20.591 11.7532 21.25 13.3424 21.25 15C21.25 16.6576 20.591 18.2468 19.4189 19.4189C18.2468 20.591 16.6576 21.25 15 21.25C13.3424 21.25 11.7532 20.591 10.5811 19.4189C9.40895 18.2468 8.75 16.6576 8.75 15C8.75 13.3424 9.40895 11.7532 10.5811 10.5811C11.7532 9.40895 13.3424 8.75 15 8.75ZM15 11.25C14.0054 11.25 13.0519 11.6454 12.3486 12.3486C11.6454 13.0519 11.25 14.0054 11.25 15C11.25 15.9946 11.6454 16.9481 12.3486 17.6514C13.0519 18.3546 14.0054 18.75 15 18.75C15.9946 18.75 16.9481 18.3546 17.6514 17.6514C18.3546 16.9481 18.75 15.9946 18.75 15C18.75 14.0054 18.3546 13.0519 17.6514 12.3486C16.9481 11.6454 15.9946 11.25 15 11.25ZM21.5625 6.875C21.9769 6.875 22.374 7.03998 22.667 7.33301C22.96 7.62603 23.125 8.0231 23.125 8.4375C23.125 8.8519 22.96 9.24897 22.667 9.54199C22.374 9.83502 21.9769 10 21.5625 10C21.1481 10 20.751 9.83502 20.458 9.54199C20.165 9.24897 20 8.8519 20 8.4375C20 8.0231 20.165 7.62603 20.458 7.33301C20.751 7.03998 21.1481 6.875 21.5625 6.875Z" fill="#310707"/>
</svg>
