<svg width="30" height="30" viewBox="0 0 30 30" fill="none" xmlns="http://www.w3.org/2000/svg">
<path d="M15 2.54974C21.875 2.54974 27.5 8.16263 27.5 15.0751C27.5067 18.0571 26.4473 20.9436 24.5127 23.2128C22.5781 25.4821 19.8957 26.9849 16.9502 27.4501V18.7001H19.8623L20.4248 15.0751H16.9502V12.7245C16.9503 11.7372 17.4377 10.7754 18.9873 10.7753H20.5625V7.68744C20.5588 7.68682 19.136 7.45018 17.7754 7.45013C14.9129 7.45013 13.0498 9.17496 13.0498 12.3124V15.0751H9.875V18.7001H13.0498V27.4501C7.07494 26.5126 2.50008 21.325 2.5 15.0751C2.5 8.16263 8.125 2.54974 15 2.54974Z" fill="#310707"/>
</svg>
