<svg width="30" height="30" viewBox="0 0 30 30" fill="none" xmlns="http://www.w3.org/2000/svg">
<path d="M15 6.25C20.2369 6.25 23.4993 6.44987 24.7871 6.7998C25.9121 7.1123 26.6377 7.83789 26.9502 8.96289C27.1126 9.55035 27.2248 10.3381 27.2998 11.3379C27.3873 12.3377 27.4248 13.2003 27.4248 13.9502L27.5 15C27.5 17.7372 27.3001 19.7496 26.9502 21.0371C26.6377 22.1621 25.9121 22.8877 24.7871 23.2002C24.1995 23.3626 23.1242 23.4748 21.4746 23.5498C19.8498 23.6373 18.3622 23.6748 16.9873 23.6748L15 23.75C9.76306 23.75 6.50068 23.5501 5.21289 23.2002C4.08789 22.8877 3.3623 22.1621 3.0498 21.0371C2.88737 20.4497 2.77518 19.6619 2.7002 18.6621C2.61272 17.6623 2.5752 16.7997 2.5752 16.0498L2.5 15C2.5 12.2628 2.69987 10.2504 3.0498 8.96289C3.3623 7.83789 4.08789 7.1123 5.21289 6.7998C5.80048 6.63737 6.87578 6.52518 8.52539 6.4502C10.1502 6.36271 11.6378 6.3252 13.0127 6.3252L15 6.25ZM12.5 18.75L18.9873 15L12.5 11.25V18.75Z" fill="#310707"/>
</svg>
