<svg width="253" height="112" viewBox="0 0 253 112" fill="none" xmlns="http://www.w3.org/2000/svg">
<g clip-path="url(#clip0_274_329)">
<path d="M10.7822 111.498C9.56849 111.279 8.35474 111.059 7.00658 110.793C5.77958 110.177 4.68699 109.606 3.57292 108.98C3.42403 108.835 3.29662 108.745 3.13969 108.596C2.45722 107.602 1.78893 106.676 1.158 105.726C0.857277 105.273 0.627596 104.773 0.367558 104.368C0.418267 104.434 0.467156 104.426 0.543889 104.373C0.458815 103.914 0.345899 103.5 0.236332 103.007C0.159788 102.522 0.0798986 102.115 0.0133936 101.658C0.0139492 101.576 0.00112033 101.544 0 101.428C0.00686346 100.274 0.00201535 99.2056 0.036602 98.0722C0.130801 97.6595 0.185563 97.3114 0.291783 96.9136C0.616594 96.0969 0.889946 95.33 1.1633 94.563C1.76583 93.8514 2.41966 93.2245 3.57838 93.2151C4.13923 93.6754 4.56049 94.1209 4.96423 94.6436C4.64379 95.8564 4.34087 96.992 4.00576 98.206C3.93192 99.3609 3.89026 100.437 3.84546 101.598C4.34241 102.824 4.84249 103.965 5.36262 105.171C5.98688 105.765 6.59108 106.295 7.25847 106.869C7.92252 107.075 8.52337 107.237 9.30097 107.447C9.014 106.488 8.80267 105.782 8.59755 104.991C8.51874 103.771 8.43371 102.636 8.36724 101.419C8.57154 100.274 8.7573 99.2105 8.97736 98.0816C9.49317 96.8843 9.97467 95.7522 10.5007 94.5797C10.6279 94.3599 10.7106 94.1806 10.8506 93.965C11.4862 93.033 12.0645 92.1373 12.6952 91.2002C12.8715 90.9671 13.0017 90.7791 13.1181 90.583C13.9721 89.1442 13.6246 88.0922 12.0755 87.427C12.046 87.4143 12.0113 87.4139 11.951 87.3466C11.4967 86.9825 11.0703 86.6794 10.5829 86.3329C10.075 86.7626 9.57492 87.1857 9.00927 87.6224C8.46019 87.9086 8.10364 88.6885 7.38719 87.9498C8.19744 87.02 9.00559 86.1618 9.82815 85.2884C9.59407 84.9355 9.32902 84.5359 9.03413 84.0913C8.38184 84.3514 7.77957 84.5916 7.09864 84.8343C5.77968 85.2499 5.61597 85.1612 5.70407 84.0823C6.25101 83.8833 6.7258 83.6869 7.27755 83.4901C7.81775 83.339 8.281 83.1883 8.74968 83.0358C8.54042 82.1997 8.35011 81.4392 8.1724 80.588C8.23583 79.3735 8.28667 78.2499 8.33502 77.0519C8.00701 76.0997 7.6815 75.2218 7.35585 74.2753C7.27997 73.9908 7.20423 73.775 7.13065 73.4845C6.83364 72.3206 6.53446 71.2313 6.25765 70.0686C6.57548 69.7006 6.87093 69.4059 7.2458 69.135C8.38509 69.4528 9.44494 69.7467 10.5105 70.0391C10.5161 70.0375 10.5206 70.0267 10.5435 70.0756C10.6359 70.1344 10.7055 70.1443 10.8169 70.1874C10.893 70.2308 10.9272 70.241 11.0072 70.2997C11.4497 70.5152 11.8514 70.6714 12.2421 70.8513C13.1243 71.2575 14.0162 71.8935 14.7289 70.5884C14.7964 70.4647 15.0772 70.4608 15.2547 70.3907C15.5772 70.2634 15.8966 70.1281 16.2855 69.9876C16.8157 69.7945 17.2778 69.61 17.8261 69.4248C19.6239 69.4231 20.8261 68.7557 21.1692 66.9644C21.1754 66.9325 21.1785 66.9 21.2353 66.828C21.31 66.6609 21.3323 66.5338 21.4106 66.365C22.0528 65.2979 22.639 64.2725 23.2884 63.2405C24.2024 62.8854 24.5622 63.5609 24.8923 64.0663C25.42 64.8745 25.8261 65.7612 26.2942 66.6884C26.8549 67.8287 27.4051 68.8952 27.9641 70.0084C28.0534 70.0981 28.1339 70.141 28.2528 70.2441C29.1687 71.3186 30.0462 72.3329 30.9334 73.4172C31.1785 73.9354 31.4139 74.3835 31.658 74.848C32.5073 74.5242 33.26 74.2113 34.0306 73.9511C34.7253 73.7165 35.0517 73.9593 34.8036 74.7338C33.8214 75.1525 32.9071 75.5524 31.9549 75.9689C32.036 76.3014 32.1104 76.6066 32.1878 76.9932C32.4777 77.1557 32.7619 77.2938 33.0519 77.3072C33.8678 77.3449 34.6861 77.3313 35.5468 77.4006C36.0557 78.0659 35.5712 78.2521 35.062 78.441C34.1036 78.4177 33.2294 78.4177 32.3285 78.4177C32.2162 79.2235 32.1187 79.9227 31.9839 80.6777C31.805 81.1136 31.6634 81.4937 31.4618 81.9048C30.9627 82.6339 30.5234 83.3317 30.0273 84.0636C29.0842 85.1179 27.8399 86.0327 28.9195 87.7057C29.334 88.9201 29.7455 90.0602 30.1538 91.2589C30.1926 91.3805 30.2345 91.4435 30.279 91.5833C31.1387 94.8905 31.5162 98.1784 31.4464 101.597C31.405 102.149 31.3977 102.619 31.3644 103.173C31.3387 103.601 31.3391 103.947 31.2959 104.354C31.1372 105.02 31.0478 105.631 30.9 106.227C30.7511 106.828 30.9302 107.234 31.5212 107.539C31.7887 107.942 32.0307 108.285 32.2749 108.713C32.0955 109.414 31.9138 110.032 31.6634 110.675C30.4751 110.898 29.3554 111.095 28.1366 111.281C26.9399 111.399 25.8424 111.527 24.6619 111.646C23.8323 111.757 23.0858 111.877 22.2551 111.982C21.8307 111.985 21.4903 112.004 21.0648 111.999C18.6404 111.875 16.3011 111.776 13.8757 111.655C12.7871 111.588 11.7847 111.543 10.7822 111.498ZM15.8212 78.072C15.7341 78.0993 15.647 78.1265 15.4252 78.173C14.9839 78.6139 14.4864 79.0159 14.1347 79.5187C14.025 79.6755 14.3095 80.1047 14.4135 80.4091C14.6685 80.2594 14.9637 80.1497 15.1671 79.9484C15.3649 79.7528 15.4687 79.4632 15.7666 79.1723C16.2106 79.2259 16.6546 79.3165 17.0988 79.3173C17.3164 79.3177 17.5934 79.2001 17.7276 79.04C17.7959 78.9585 17.66 78.548 17.5255 78.4881C17.0968 78.2974 16.6255 78.2013 16.0608 78.0423C16.0266 78.0582 15.9925 78.0741 15.8212 78.072ZM24.293 76.9178C24.5522 75.8422 25.3063 75.9655 26.1283 76.118C26.3832 76.1653 26.6836 75.9699 26.9632 75.8856C26.8075 75.6289 26.6718 75.1687 26.4927 75.1514C25.7876 75.0833 25.0689 75.1544 24.2204 75.1968C23.9257 75.6484 23.491 76.0677 23.3758 76.5608C23.2614 77.0508 23.5292 77.5085 24.293 76.9178ZM20.8041 80.6051C21.4548 80.8152 21.46 81.2575 21.2245 81.7782C20.8872 82.5237 20.3104 82.655 19.2899 82.2953C19.0659 82.2164 18.7768 82.3201 18.5176 82.3396C18.6474 82.5785 18.7206 82.8881 18.9171 83.0436C19.6232 83.6025 20.8118 83.5608 21.4493 82.8008C22.0319 82.1065 22.5434 81.833 23.4941 81.9753C24.595 82.1402 25.4791 81.3293 25.5158 80.3872C25.5241 80.1749 25.3353 79.9551 25.2372 79.7388C25.0777 79.8802 24.8911 80.0018 24.7678 80.1694C24.6768 80.2932 24.713 80.5736 24.6158 80.6179C24.1099 80.8483 23.5874 81.1201 23.0526 81.1648C22.8871 81.1786 22.6343 80.5376 22.4786 80.1724C22.3536 79.8796 22.2846 79.2747 22.2427 79.2792C21.7415 79.3339 21.2193 79.4149 20.7741 79.633C20.6369 79.7003 20.7163 80.2046 20.8041 80.6051Z" fill="#340907"/>
<path d="M246.002 82.2713C246.507 82.8363 247.012 83.4013 247.589 84.0738C248.413 85.2238 248.708 86.3671 248.403 87.6976C247.911 88.7746 247.143 89.2997 245.954 89.2095C245.87 89.1902 245.835 89.194 245.745 89.1522C244.602 88.7949 243.671 87.8726 242.322 88.2575C241.071 88.6148 239.9 88.9479 238.813 87.9354C238.688 87.7086 238.575 87.5422 238.45 87.2994C238.522 86.3084 238.606 85.3936 238.734 84.4489C238.816 84.3173 238.852 84.2156 238.943 84.0781C240.066 83.241 241.133 82.4397 242.283 81.631C243.704 81.1366 244.894 81.4743 246.002 82.2713Z" fill="#330C0A"/>
<path d="M245.455 77.3731C245.567 77.2176 245.679 77.0622 245.859 76.83C245.998 76.6694 246.069 76.5857 246.141 76.5019C247.887 75.5403 249.104 76.2775 249.137 78.4738C248.642 79.2842 248.184 79.9599 247.727 80.6357C247.202 80.6488 246.677 80.6618 246.035 80.6724C245.918 80.6699 245.828 80.6786 245.81 80.6067C245.065 79.546 245.02 78.4849 245.455 77.3731Z" fill="#340C0A"/>
<path d="M249.217 84.0522C248.738 82.5493 249.257 81.1116 250.5 80.4984C251.795 79.8597 252.953 80.5402 252.998 81.9671C253.059 83.8716 251.545 85.0515 249.657 84.4175C249.445 84.2447 249.331 84.1485 249.217 84.0522Z" fill="#340C0A"/>
<path d="M140.467 6.47953H144.058C144.058 5.76604 144.058 5.05276 144.065 4.24976C144.143 3.62135 144.213 3.08267 144.294 2.4585C145.238 1.59558 146.258 1.77052 147.4 2.18742C147.628 2.62791 147.75 2.98492 147.848 3.4272C147.759 4.50208 147.693 5.49171 147.627 6.49373C148.868 6.49373 149.949 6.49373 151.122 6.50944C152.35 6.58803 153.486 6.6509 154.664 6.76288C154.942 6.92452 155.176 7.03707 155.438 7.21198C155.653 7.57597 155.955 7.86002 156.005 8.18275C156.121 8.92741 156.115 9.69084 156.121 10.5216C156.027 11.7406 155.971 12.8847 155.887 14.117C155.776 15.2738 155.692 16.3423 155.563 17.4732C155.165 18.647 154.811 19.7584 154.409 20.9103C153.481 21.9747 152.243 22.038 150.949 22.163C149.785 22.0255 148.71 21.91 147.604 21.7391C147.436 21.425 147.299 21.1663 147.172 20.8238C147.064 19.9977 146.718 19.2078 147.702 18.6791C147.946 18.7073 148.105 18.7322 148.263 18.7596C150.252 19.1047 151.798 18.444 152.126 16.957C152.364 15.8769 152.358 14.7436 152.504 13.5648C152.578 12.4892 152.609 11.4827 152.663 10.3912C152.611 9.12719 151.725 9.89688 151.144 9.69766C149.916 9.67735 148.781 9.67028 147.58 9.64787C147.435 9.71389 147.356 9.79526 147.261 9.95705C147.228 10.3102 147.212 10.5829 147.15 10.9131C146.875 11.9068 146.647 12.8429 146.358 13.8198C145.801 14.963 145.306 16.0654 144.753 17.2033C144.41 17.692 144.124 18.1453 143.784 18.6355C143.101 19.3732 142.474 20.0738 141.785 20.7965C141.298 21.1882 140.873 21.5578 140.371 21.95C139.775 21.9809 139.204 22.1282 138.75 21.9607C138.232 21.7694 137.818 21.298 137.334 20.8838C137.263 20.552 137.217 20.2849 137.214 19.9704C137.52 19.6842 137.777 19.4366 138.051 19.2083C138.749 18.6253 139.455 18.051 140.208 17.4405C140.401 17.2148 140.543 17.022 140.747 16.8036C141.378 15.8881 141.948 14.9982 142.52 14.1055C142.522 14.1028 142.528 14.0992 142.575 14.074C142.633 13.9811 142.645 13.9133 142.701 13.7896C143.058 12.6493 143.371 11.565 143.735 10.4165C143.786 10.114 143.786 9.8757 143.786 9.67666C142.691 9.67666 141.676 9.67666 140.571 9.65633C139.953 9.63364 139.423 9.65611 138.895 9.62372C137.823 9.55784 137.416 9.14808 137.396 8.07463C137.389 7.69059 137.514 7.30419 137.637 6.87879C138.62 6.71898 139.543 6.59926 140.467 6.47953Z" fill="#330C0A"/>
<path d="M242.409 79.8876C240.689 80.4485 239.663 79.61 239.442 77.3131C239.958 75.3724 240.664 74.9545 242.208 75.5295C242.54 76.0267 242.873 76.5239 243.231 77.1601C243.409 78.3027 243.198 79.1886 242.409 79.8876Z" fill="#330C0A"/>
<path d="M238.741 80.6063C238.681 81.1107 238.643 81.6071 238.53 82.2073C238.299 82.4917 238.143 82.6722 237.926 82.8578C237.72 82.9234 237.573 82.9839 237.349 83.0324C237.062 83.0113 236.853 83.0021 236.595 82.9542C236.248 82.7644 235.951 82.6134 235.624 82.3991C235.33 81.7881 235.065 81.2405 234.809 80.61C234.959 79.9482 235.102 79.3692 235.31 78.7568C236.429 78.19 237.251 78.3153 237.978 79.2088C238.315 79.6239 238.535 80.1342 238.807 80.6014C238.807 80.6014 238.762 80.5982 238.741 80.6063Z" fill="#340C0A"/>
<path d="M66.8286 1.38016C67.9027 1.39058 68.9767 1.401 70.1916 1.40597C70.3661 1.38758 70.3997 1.37465 70.4333 1.36172C71.4955 1.38846 72.5577 1.41519 73.7099 1.42188C74.8036 1.63192 75.5957 2.07699 75.7062 3.38786C75.7514 4.6602 75.7767 5.77998 75.7758 6.97605C75.733 7.37892 75.7185 7.70563 75.6994 8.03208C75.5996 9.73896 75.0463 10.2465 73.2934 10.2566C72.4062 10.2618 71.519 10.2814 70.5768 10.2895C70.5086 10.3485 70.4954 10.4126 70.4701 10.5637C70.4632 11.12 70.4685 11.5891 70.4556 12.1141C70.5066 12.2381 70.5757 12.3063 70.7349 12.3948C71.8185 12.4013 72.8121 12.3874 73.8976 12.3916C75.0736 12.5281 76.2868 12.0217 77.1934 13.1415C77.2308 13.4906 77.2554 13.7594 77.2513 14.0925C77.1885 14.2934 77.1545 14.43 77.0694 14.6148C76.672 14.824 76.3381 15.0788 75.9769 15.1258C75.265 15.2185 74.5378 15.1959 73.7334 15.1978C73.2026 15.1747 72.7555 15.1747 72.0426 15.1747C72.7334 15.9753 73.2742 16.602 73.8298 17.2747C73.8809 17.3797 73.9333 17.4148 74.0269 17.4882C75.103 18.4318 76.1542 19.3132 77.218 20.2697C77.2746 20.4896 77.3185 20.6345 77.3235 20.8475C77.253 21.0688 77.2214 21.222 77.1319 21.4094C76.1399 22.7738 75.4617 22.8949 74.273 21.9442C74.1225 21.8238 73.97 21.7058 73.7909 21.5311C73.5775 21.315 73.3917 21.1543 73.1767 20.9345C72.2768 19.8322 71.4061 18.789 70.4685 17.6656C70.4685 18.8509 70.4685 19.9225 70.452 21.0825C70.4326 21.6285 70.451 22.0875 70.4222 22.5436C70.36 23.5289 69.8079 24.0442 68.8493 24.0447C67.8712 24.0453 67.3352 23.5469 67.2732 22.5544C67.2406 22.0336 67.2392 21.5109 67.2416 20.8977C67.2595 19.8095 67.2595 18.8127 67.2595 17.8159C67.2026 17.8116 67.1456 17.8072 67.0887 17.8029C66.9955 17.9698 66.9023 18.1368 66.7535 18.3469C65.9146 19.3165 65.1314 20.243 64.2902 21.191C63.9023 21.5265 63.5722 21.8405 63.1702 22.1715C62.3025 22.7177 61.5684 22.6753 60.9381 21.9266C60.6895 21.6312 60.4868 21.2977 60.2773 20.913C60.6011 20.4392 60.8682 19.9914 61.2283 19.637C62.3015 18.5809 63.4274 17.5774 64.4975 16.5182C64.8426 16.1765 65.0782 15.7255 65.4326 15.2282C64.6282 15.2282 64.0388 15.2282 63.3623 15.2084C62.9479 15.1863 62.6206 15.1891 62.2936 15.1808C60.9504 15.1466 60.6082 14.8235 60.501 13.3981C60.7729 12.6443 61.2957 12.4102 61.9887 12.4138C62.4141 12.4161 62.8396 12.3841 63.3553 12.387C64.5903 12.38 65.7352 12.3535 66.8956 12.3149C66.9111 12.3028 66.9153 12.2638 66.9315 12.3111C67.022 12.3297 67.0962 12.3011 67.2081 12.2226C67.235 12.1326 67.2242 12.0925 67.227 12.0067C67.2406 11.9612 67.2175 11.8689 67.2417 11.7842C67.2547 11.2909 67.2435 10.8824 67.2041 10.3906C66.7521 10.2932 66.3255 10.305 65.9051 10.2599C64.8835 10.15 63.8648 10.0137 62.8118 9.82346C62.5859 8.81094 62.3931 7.86301 62.2177 6.82296C62.2294 5.59565 62.2237 4.46047 62.2387 3.255C62.6022 2.66248 62.9452 2.14025 63.3703 1.60247C64.5779 1.518 65.7033 1.44908 66.8286 1.38016ZM70.9928 7.52589C71.5089 7.33815 72.2866 7.98904 72.5941 6.86609C72.5966 6.67123 72.6058 6.4762 72.6005 6.28156C72.5361 3.92555 73.1978 4.0662 70.0568 4.13661C68.9808 4.14771 67.9047 4.15881 66.6564 4.13271C66.4581 4.12991 66.2573 4.14577 66.0617 4.12105C65.275 4.02161 65.0845 4.52212 65.269 5.08195C65.5345 5.88734 64.4234 7.28342 66.0655 7.46309C67.6323 7.63452 69.2344 7.48627 70.9928 7.52589Z" fill="#330C0A"/>
<path d="M39.9215 108.719C39.8988 107.746 40.5509 107.387 41.2487 107.063C41.5724 106.913 41.8914 106.753 42.3249 106.532C43.3818 106.001 44.3264 105.534 45.3329 105.069C45.4938 105.008 45.5927 104.945 45.7561 104.889C45.9265 104.833 46.0324 104.77 46.2094 104.7C47.2774 104.282 48.2745 103.873 49.3435 103.458C50.5025 103.007 51.5893 102.562 52.7459 102.117C53.0322 102.039 53.2489 101.962 53.5386 101.882C54.4972 101.553 55.3826 101.226 56.3433 100.902C57.5636 100.51 58.7087 100.115 59.9304 99.7221C61.0955 99.3324 62.1841 98.9399 63.3513 98.5385C64.5016 98.281 65.5733 98.0323 66.7267 97.7836C67.9468 97.4984 69.0853 97.2131 70.3011 96.9311C71.5307 96.6493 72.683 96.3641 73.9211 96.0726C75.3404 95.7542 76.674 95.4422 78.0861 95.1437C78.7151 95.0357 79.2657 94.9141 79.892 94.8005C80.2651 94.7572 80.5624 94.7059 80.8956 94.6631C80.9315 94.6716 80.9811 94.6173 81.0518 94.616C81.2133 94.5914 81.3042 94.5681 81.4762 94.5562C82.4962 94.3864 83.4351 94.2051 84.4619 94.03C85.4958 93.8734 86.4418 93.7106 87.4393 93.5584C87.5225 93.5545 87.5542 93.5399 87.6427 93.5319C87.8001 93.4942 87.9009 93.45 88.0869 93.4184C89.2438 93.2697 90.3156 93.1082 91.4673 92.954C92.6889 92.7716 93.8305 92.582 95.0587 92.4151C96.2163 92.2918 97.2874 92.1459 98.4468 92.0138C99.6146 91.8981 100.694 91.7687 101.862 91.6478C103.679 91.4985 105.407 91.3406 107.219 91.1978C107.843 91.151 108.384 91.0891 109.018 91.0432C110.25 90.9771 111.391 90.8949 112.623 90.8294C113.707 90.7811 114.7 90.7161 115.788 90.6664C117.086 90.6277 118.289 90.5737 119.57 90.5356C120.057 90.52 120.467 90.4885 120.969 90.4769C121.741 90.4681 122.421 90.4395 123.192 90.4318C125.484 90.4356 127.684 90.4186 129.934 90.4216C130.018 90.4307 130.052 90.4197 130.175 90.4323C131.343 90.4722 132.421 90.4885 133.588 90.5287C134.741 90.5769 135.806 90.6012 136.92 90.6493C137.006 90.6625 137.041 90.6518 137.152 90.6736C138.305 90.7356 139.383 90.7651 140.546 90.8167C141.776 90.9045 142.921 90.9701 144.141 91.0708C145.391 91.1718 146.567 91.2377 147.815 91.3103C148.353 91.3424 148.819 91.3679 149.339 91.447C149.874 91.5307 150.354 91.5607 150.912 91.6182C152.2 91.7596 153.412 91.8736 154.697 92.0205C155.904 92.1891 157.039 92.3247 158.249 92.4937C159.418 92.6589 160.512 92.7907 161.676 92.948C162.887 93.1259 164.028 93.2783 165.235 93.4715C166.395 93.6834 167.487 93.8545 168.642 94.071C169.845 94.2987 170.985 94.4811 172.194 94.6929C172.566 94.7476 172.868 94.7729 173.228 94.8489C173.915 94.9872 174.545 95.0749 175.231 95.2136C176.574 95.5289 177.862 95.7931 179.214 96.0913C180.342 96.3442 181.406 96.5632 182.53 96.833C183.777 97.171 184.963 97.4581 186.214 97.7857C187.423 98.0666 188.568 98.307 189.744 98.6143C190.894 99.0287 192.012 99.3762 193.188 99.7706C194.406 100.19 195.568 100.563 196.782 100.987C199.124 101.857 201.414 102.675 203.76 103.538C204.971 104.039 206.128 104.495 207.32 104.997C207.542 105.105 207.728 105.166 207.977 105.261C208.924 105.688 209.807 106.083 210.734 106.531C211.103 106.742 211.425 106.903 211.752 107.055C212.456 107.381 213.124 107.735 213.093 108.728C212.523 109.955 212.13 110.077 210.699 109.529C209.629 109.09 208.559 108.651 207.416 108.186C206.872 107.879 206.42 107.56 205.926 107.329C205.25 107.012 204.542 106.762 203.716 106.441C202.58 106.017 201.576 105.635 200.532 105.202C200.365 105.127 200.238 105.105 200.064 105.029C198.915 104.605 197.814 104.234 196.661 103.816C195.514 103.418 194.419 103.068 193.26 102.679C192.047 102.301 190.897 101.96 189.701 101.578C189.414 101.472 189.172 101.408 188.859 101.318C187.912 101.062 187.037 100.831 186.098 100.568C184.941 100.269 183.847 100.001 182.683 99.6992C181.464 99.421 180.315 99.177 179.103 98.8873C177.885 98.6065 176.73 98.3713 175.507 98.1009C175.087 98.0168 174.735 97.968 174.325 97.8671C173.528 97.6843 172.788 97.5535 171.978 97.3925C170.806 97.173 169.703 96.9837 168.521 96.7666C167.384 96.5725 166.327 96.4062 165.196 96.2105C163.954 96.026 162.785 95.8709 161.55 95.6736C160.392 95.4904 159.301 95.3494 158.163 95.1899C158.082 95.1783 158.049 95.1854 157.934 95.1695C156.777 95.0258 155.703 94.9049 154.549 94.7578C153.32 94.6251 152.172 94.5186 150.94 94.3965C150.519 94.366 150.181 94.3512 149.78 94.2862C149.046 94.1794 148.376 94.1228 147.627 94.0376C146.384 93.9335 145.218 93.8579 143.972 93.7557C142.75 93.669 141.61 93.609 140.391 93.5228C139.231 93.4602 138.15 93.4239 137.019 93.3702C136.936 93.3627 136.902 93.3725 136.783 93.3584C135.62 93.2966 134.543 93.2587 133.375 93.2016C132.218 93.1821 131.151 93.1819 129.993 93.1629C127.568 93.1576 125.235 93.1711 122.81 93.1673C121.652 93.1728 120.586 93.1956 119.43 93.2055C118.265 93.2581 117.191 93.3237 116.066 93.3745C115.983 93.3708 115.95 93.3818 115.826 93.3769C114.665 93.4314 113.595 93.5018 112.434 93.5584C111.139 93.63 109.936 93.7154 108.643 93.7928C107.524 93.8755 106.492 93.9661 105.376 94.0463C104.641 94.135 103.991 94.2341 103.267 94.3215C103.048 94.3351 102.902 94.3603 102.668 94.3612C101.172 94.4864 99.7646 94.6358 98.2734 94.7755C97.1196 94.9094 96.049 95.0529 94.8964 95.1884C93.6717 95.3662 92.5292 95.5521 91.3001 95.7263C90.0991 95.8818 88.9847 96.0489 87.7874 96.2124C86.5983 96.4043 85.4921 96.5998 84.3072 96.7897C83.1364 97.0001 82.0444 97.216 80.8703 97.4387C80.124 97.5964 79.4598 97.7473 78.7163 97.8937C78.2298 97.9753 77.8226 98.0614 77.3345 98.1417C76.1116 98.3957 74.9696 98.6556 73.7462 98.9094C72.522 99.1835 71.379 99.4635 70.1583 99.7365C68.9955 100.023 67.9106 100.318 66.7448 100.624C65.5942 100.935 64.5245 101.234 63.4548 101.534C63.3319 101.549 63.209 101.564 62.968 101.631C61.8344 101.993 60.8188 102.304 59.7264 102.625C58.5156 103.02 57.3816 103.405 56.17 103.807C55.0881 104.184 54.0837 104.542 53.0367 104.893C52.9282 104.887 52.8834 104.919 52.786 105.001C51.5611 105.492 50.4101 105.961 49.2591 106.431C48.1692 106.869 47.0792 107.307 45.9402 107.796C45.4635 108.027 45.0358 108.207 44.5516 108.428C43.7863 108.798 43.0773 109.128 42.3282 109.51C40.9348 110.066 40.4983 109.92 39.9215 108.719Z" fill="#340C0A"/>
<path d="M126.686 0.539479C127.362 0.463792 128.086 0.203219 128.703 0.359139C129.478 0.55476 129.433 1.37742 129.494 2.07786C129.53 2.48602 129.054 3.15445 130.005 3.28072C130.679 3.29103 131.269 3.31903 131.946 3.35504C132.765 3.81232 132.943 4.46707 132.679 5.23789C132.419 6.0007 131.764 6.10849 131.064 6.10235C130.571 6.09802 130.078 6.10151 129.545 6.10151C129.294 7.04712 129.845 8.31291 128.465 8.71586C127.745 8.92626 127.086 8.82014 126.554 8.028C126.433 7.58151 126.382 7.25654 126.356 6.85255C126.234 6.55291 126.099 6.1519 125.938 6.14146C125 6.0807 124.056 6.11172 123.119 6.11172C123.119 6.51954 123.119 6.81182 123.104 7.17871C123.023 7.59855 122.956 7.94377 122.827 8.32048C122.185 8.46833 121.558 8.78437 121.034 8.6622C119.667 8.34329 120.173 7.0415 120.008 6.14835C116.838 5.99266 116.416 5.63112 117.139 3.66978C117.967 3.49991 118.736 3.38207 119.593 3.28221C119.795 2.91048 119.984 2.52515 120.008 2.13011C120.049 1.43282 119.962 0.705526 120.741 0.334262C121.507 -0.0303838 122.219 0.111159 122.881 0.724638C122.993 1.6081 123.086 2.4165 123.184 3.27208H126.247C126.398 2.33117 126.542 1.43533 126.686 0.539479Z" fill="#330C0A"/>
<path d="M245.782 67.6491C244.592 68.1516 243.454 68.612 242.204 69.1241C241.998 69.2436 241.904 69.3112 241.81 69.3788C241.608 69.1336 241.345 68.9162 241.216 68.6375C240.931 68.0199 240.713 67.3714 240.433 66.5962C240.159 65.308 239.918 64.159 239.707 62.9321C239.962 60.9398 240.574 60.2986 242.329 60.2212C243.979 60.6246 243.989 61.9846 244.167 63.2606C244.764 62.8911 245.284 62.5695 245.804 62.2479C246.934 62.03 248.013 61.9828 248.783 63.1685C249.171 64.5715 248.667 65.6163 247.615 66.5352C246.998 66.931 246.416 67.269 245.782 67.6491Z" fill="#340907"/>
<path d="M42.3292 82.4188C42.0302 81.8669 41.7313 81.3149 41.3829 80.7154C41.057 79.5226 40.7805 78.3773 40.4764 77.1668C40.2772 76.0359 40.1055 74.9701 39.9145 73.8252C39.8088 72.6055 39.7224 71.4649 39.6201 70.1598C39.5614 68.8669 39.5188 67.7386 39.4761 66.6103C39.5116 65.5484 39.5472 64.4865 39.5969 63.263C39.6804 61.9604 39.7498 60.8194 39.8417 59.5903C39.9688 58.3789 40.0732 57.2557 40.2163 56.0638C40.4121 54.8339 40.5691 53.6729 40.7726 52.45C41.0066 51.3241 41.1942 50.2599 41.418 49.1302C41.5895 48.5245 41.7388 47.9873 41.8577 47.4435C42.3112 45.3696 43.4536 44.0267 45.7645 43.8603C47.3131 43.9802 48.4098 44.6695 49.1259 46.0446C49.1088 47.0867 49.1743 48.0581 49.0433 49.0026C48.8789 50.188 48.5535 51.3513 48.2607 52.5921C48.0113 53.7987 47.7989 54.9374 47.5545 56.1581C47.3877 57.3831 47.2529 58.526 47.0973 59.7524C47.0115 60.902 46.9466 61.9681 46.8578 63.1216C46.8329 64.3468 46.8318 65.4846 46.8082 66.702C46.8453 68.3656 46.9049 69.9496 46.9614 71.4486C47.7555 70.5946 48.5153 69.7776 49.3535 68.9563C50.6782 68.554 51.6847 69.0649 52.6525 69.8423C52.74 69.9878 52.8103 70.0782 52.8858 70.2438C53.4168 71.2925 53.0844 72.2526 52.7803 73.2536C52.6082 73.5689 52.5012 73.8448 52.3463 74.1689C51.9437 75.1749 51.5891 76.1326 51.1834 77.1393C50.7083 78.3523 50.2843 79.5164 49.8038 80.7175C49.5233 81.1928 49.2993 81.6312 49.0222 82.1094C48.0872 83.405 46.7771 83.7332 45.2689 83.7637C44.237 83.2904 43.2831 82.8546 42.3292 82.4188Z" fill="#340907"/>
<path d="M59.7811 0.572815C61.539 1.18945 61.6883 1.44519 61.171 3.05369C60.8338 3.81162 60.5499 4.44256 60.3016 5.08704C60.0708 5.68606 59.878 6.29952 59.6533 6.99832C59.645 9.27531 59.6519 11.4606 59.6377 13.7114C59.6315 13.8663 59.6463 13.9556 59.6495 14.1372C59.6471 16.3477 59.6565 18.466 59.6435 20.6505C59.6363 20.8075 59.6513 20.8983 59.6523 21.0783C59.6164 21.8267 59.5947 22.4857 59.5315 23.186C59.4398 23.3327 59.3897 23.4383 59.2842 23.5769C58.0024 24.4 57.2603 24.2197 56.5247 22.8644C56.5019 22.1791 56.4808 21.5828 56.4836 20.8966C56.4896 19.8732 56.4716 18.9397 56.4679 17.9145C56.4852 16.0792 56.494 14.3357 56.4845 12.5922C56.4832 12.3536 56.391 12.1155 56.3409 11.8772C56.321 11.8932 56.2975 11.9065 56.2822 11.9261C56.2621 11.9518 56.2486 11.9826 56.1694 12.0404C55.0281 13.1919 54.195 13.0133 53.6789 11.5303C53.5612 11.1923 53.5305 10.8244 53.4902 10.4085C54.2393 9.27033 54.9579 8.19393 55.7336 7.08132C55.9469 6.72173 56.103 6.39836 56.315 6.0383C56.8063 5.11337 57.2417 4.22512 57.6771 3.33687C57.9435 2.74175 58.1329 2.09313 58.5012 1.56871C58.7877 1.16088 59.2971 0.907842 59.7811 0.572815Z" fill="#330C0A"/>
<path d="M112.332 1.74471C112.627 2.09491 112.921 2.4451 113.284 2.87717C114.082 2.224 114.286 0.721548 115.838 1.13584C117.301 1.97821 117.368 2.16297 116.642 3.43703C116.34 3.86111 116.117 4.18524 115.831 4.5379C115.001 5.3272 115.08 6.11012 115.73 6.97572C115.792 7.12888 115.83 7.2137 115.808 7.33261C115.786 7.48452 115.823 7.60235 115.874 7.7993C116.039 8.74093 116.191 9.60346 116.327 10.5494C116.403 11.7752 116.494 12.9174 116.557 14.1475C116.531 15.2947 116.533 16.354 116.511 17.493C116.297 18.7101 116.108 19.8477 115.897 21.0098C115.876 21.0343 115.905 21.0927 115.855 21.1464C115.284 22.7683 114.067 23.3926 112.443 23.5724C111.222 23.6239 110.115 23.6628 109.869 22.1483C109.844 21.9942 109.526 21.8873 109.37 21.6902C109.648 21.2897 109.899 20.9575 110.238 20.6407C112.969 20.7754 113.201 20.5649 113.331 17.9117C113.339 17.7484 113.317 17.5836 113.333 17.3394C113.42 16.3541 113.484 15.4491 113.548 14.5441C113.467 14.5316 113.386 14.5191 113.305 14.5067C113.041 14.9152 112.777 15.3238 112.453 15.7708C111.884 16.3392 111.373 16.8692 110.784 17.4029C110.391 17.3911 110.077 17.3757 109.722 17.3099C109.373 17.0147 109.065 16.77 108.753 16.4606C108.865 15.8731 108.981 15.3503 109.129 14.7707C109.414 14.4766 109.667 14.2393 109.985 13.9879C110.835 13.0897 111.595 12.1809 112.414 11.3283C113.327 10.3771 113.316 9.37453 112.723 8.23187C112.634 8.17744 112.55 8.18291 112.452 8.18851C112.438 8.18864 112.41 8.19545 112.354 8.22525C110.717 9.68937 110.431 9.76377 109.118 9.01337C108.423 8.46596 108.397 7.86628 108.766 7.19538C108.907 7.08319 109.048 6.971 109.288 6.78855C110.761 5.59844 110.989 4.48916 109.971 3.46072C109.89 3.35844 109.829 3.31152 109.764 3.26192C109.759 3.25924 109.772 3.25799 109.772 3.25799C109.203 2.71943 108.838 2.19666 109.597 1.48961C110.394 0.746776 110.995 0.712246 112.092 1.55945C112.212 1.69209 112.265 1.72838 112.332 1.74471Z" fill="#330C0A"/>
<path d="M93.4163 0.158405C93.8814 0.139714 94.3466 0.121023 94.9521 0.14207C95.3821 0.579594 95.6719 0.97738 96.0368 1.47833C96.5907 1.47833 97.3088 1.45048 98.0236 1.4873C98.5772 1.51582 98.8118 1.30301 98.8196 0.731504C98.9289 0.584189 98.9829 0.469034 99.0693 0.343762C99.1467 0.314464 99.176 0.281508 99.2524 0.221884C99.4671 0.139324 99.6192 0.0696625 99.7712 0C99.979 0.00659749 100.187 0.0131965 100.472 0.00697579C100.899 0.224812 101.25 0.45547 101.652 0.726277C101.728 0.990089 101.752 1.21375 101.782 1.48422C102.341 1.48422 102.867 1.48454 103.393 1.48417C104.834 1.48315 105.062 1.733 104.915 3.26181C104.682 3.47568 104.469 3.60396 104.108 3.75198C103.213 3.77171 102.467 3.77171 101.721 3.77171C101.765 3.87484 101.809 3.97796 101.853 4.08108C101.489 4.38319 101.153 4.89047 100.756 4.94285C100.026 5.03909 99.8725 5.43623 99.7667 6.01565H101.945C102.165 6.02609 102.385 6.03653 102.754 6.04019C103.048 6.02614 103.194 6.01888 103.341 6.01161C103.668 6.26522 103.996 6.51882 104.33 6.91394C104.201 7.78034 103.643 7.8593 103.056 7.8644C101.904 7.8744 100.752 7.86734 99.6001 7.86734C99.5536 7.97281 99.5071 8.07827 99.4606 8.18374C99.6987 8.32756 99.9314 8.58343 100.176 8.59513C101.067 8.63779 101.973 8.52207 102.852 8.63146C103.17 8.67104 103.429 9.17601 103.716 9.46862C103.411 9.68989 103.12 10.0717 102.797 10.1016C101.911 10.1836 101.01 10.0866 100.119 10.1331C99.9063 10.1442 99.7088 10.4393 99.5044 10.6038L99.677 10.8309C100.832 10.8309 101.987 10.8309 103.205 10.864C103.39 11.2338 103.654 11.6049 103.584 11.8957C103.533 12.106 103.049 12.245 102.736 12.3497C102.496 12.4298 102.221 12.4068 101.87 12.4079C101.218 12.3858 100.651 12.3364 100.1 12.409C99.8773 12.4384 99.6901 12.7342 99.4867 12.9088C99.5504 12.9698 99.6141 13.0308 99.6777 13.0919C100.433 13.0919 101.188 13.0919 102.004 13.1249C102.487 13.162 102.91 13.1805 103.332 13.1666C103.968 13.1455 104.58 13.1525 104.881 13.9078C104.894 13.9879 104.909 14.0177 104.895 14.1154C104.795 14.9116 104.301 15.0504 103.68 15.0522C101.907 15.0573 100.133 15.0769 98.2691 15.0707C97.109 15.0623 96.0401 15.0739 94.8794 15.0752C93.6952 15.0064 92.5177 15.3693 91.5982 14.3718C91.5319 14.2184 91.4704 14.123 91.4016 13.9359C91.3943 12.7865 91.3943 11.7289 91.3943 10.7591C90.758 10.7175 90.3036 10.6877 89.8191 10.6071C89.7211 10.5178 89.6531 10.4792 89.5881 10.453C89.5911 10.4653 89.6148 10.4562 89.5794 10.3904C88.9748 9.81629 89.0494 9.26005 89.42 8.68131C89.7491 8.16738 90.0775 7.65301 90.4647 7.10356C90.936 6.38013 91.3487 5.692 91.8086 4.95985C92.2244 4.6601 92.593 4.40436 93.243 3.95337C92.4591 3.95337 91.9205 3.95337 91.3057 3.94005C90.7953 3.75483 90.3612 3.58294 89.8976 3.32503C89.6436 1.78697 89.831 1.59747 91.6514 1.53542C92.3949 1.61041 92.9624 1.55842 93.0364 0.693695C93.0524 0.505917 93.284 0.336357 93.4163 0.158405ZM98.2563 4.56495C98.4668 4.58413 98.6772 4.60331 98.8877 4.62249C98.9111 4.49817 98.9346 4.37384 98.958 4.24952C98.1262 3.21912 96.8615 4.08882 96.1042 3.83158C95.646 4.29807 95.3224 4.6211 95.0062 4.9512C94.7025 5.26835 94.4065 5.59282 93.9368 6.09692C95.4365 6.01354 96.7984 6.56686 97.447 4.96252C97.5227 4.77506 97.8815 4.70065 98.2563 4.56495ZM96.6757 12.7641C96.6307 12.6479 96.5913 12.4332 96.5399 12.4303C95.7944 12.3883 95.0471 12.3629 94.3007 12.3709C94.2175 12.3718 94.0787 12.5985 94.071 12.7267C94.0627 12.8626 94.1877 13.1307 94.2416 13.1275C95.0515 13.0796 95.8591 12.9963 96.6757 12.7641ZM96.3956 7.85183H94.1327C94.0745 7.94512 94.0163 8.03841 93.9581 8.13171C94.1751 8.30087 94.3746 8.57837 94.6128 8.61644C95.0961 8.6937 95.6011 8.62548 96.0959 8.64655C96.7288 8.67349 96.7335 8.35319 96.3956 7.85183ZM94.7486 10.0995C94.5188 10.2399 94.2891 10.3804 94.0594 10.5208C94.2806 10.639 94.4936 10.836 94.7246 10.8594C95.2442 10.912 95.7743 10.9014 96.2965 10.865C96.4337 10.8555 96.6846 10.6121 96.6638 10.5551C96.6011 10.383 96.4444 10.1398 96.2994 10.1217C95.8472 10.0653 95.3835 10.0997 94.7486 10.0995Z" fill="#340C0A"/>
<path d="M178.925 4.54965C179.645 5.12332 180.515 5.61186 180.174 6.91553C179.867 8.10276 179.583 9.14711 179.25 10.2406C179.128 10.5514 179.055 10.813 178.946 11.1364C178.517 12.0647 178.125 12.9312 177.674 13.8355C176.922 14.8759 176.226 15.8786 175.471 16.9197C174.255 17.9614 173.098 18.9646 171.877 19.9859C171.405 20.2686 170.998 20.5332 170.522 20.8076C169.749 21.1913 169.045 21.5652 168.267 21.9512C167.022 22.6075 166 22.1845 165.03 21.4618C164.902 21.1904 164.754 20.9829 164.586 20.7028C164.051 19.8376 164.534 19.4661 165.263 19.1619C168.909 18.1399 171.727 16.0727 173.926 13.0366C174.392 12.164 174.812 11.3362 175.28 10.4543C175.611 9.4686 175.894 8.53709 176.208 7.50136C174.749 7.50136 173.466 7.50136 172.091 7.48305C170.862 7.4794 169.724 7.49404 168.496 7.4902C167.336 7.48479 166.268 7.49787 165.151 7.49513C165.068 7.48907 165.035 7.49885 165.002 7.50862C164.506 7.49918 164.004 7.53566 163.515 7.47188C161.908 7.26221 161.807 7.12759 161.808 5.32139C162.058 4.36015 162.653 4.13105 163.432 4.16409C163.959 4.18645 164.489 4.16494 165.078 4.18863C165.221 4.19695 165.305 4.1797 165.477 4.18836C166.583 4.20144 167.6 4.18861 168.706 4.2008C169.927 4.20319 171.06 4.18054 172.279 4.1892C173.099 4.20353 173.832 4.18657 174.646 4.19271C175.007 4.19514 175.286 4.17446 175.654 4.1834C176.804 4.32523 177.864 4.43744 178.925 4.54965Z" fill="#330C0A"/>
<path d="M131.898 14.049C131.889 15.1084 131.88 16.1677 131.872 17.41C131.881 18.7246 131.889 19.8563 131.879 21.073C131.857 23.2321 131.559 23.6159 129.862 23.6251C129.531 23.4343 129.112 23.3318 129.022 23.1019C128.786 22.4989 128.356 22.4952 127.854 22.5248C127.402 22.5515 126.949 22.5628 126.404 22.5651C125.24 22.5632 124.168 22.5772 123.007 22.5722C122.268 22.5532 121.619 22.5532 120.97 22.5532L121.115 22.8505C120.581 23.1604 120.048 23.4704 119.441 23.7638C118.357 23.6846 117.941 23.085 117.897 22.1457C117.879 21.7571 117.856 21.3687 117.852 20.889C117.856 19.6683 117.843 18.5388 117.849 17.3187C117.855 16.1728 117.841 15.1176 117.848 13.9706C117.946 12.7424 118.024 11.606 118.149 10.4224C118.635 10.0807 119.074 9.78623 119.605 9.50371C120.833 9.5008 121.969 9.4859 123.196 9.48723C124.356 9.49626 125.424 9.48907 126.493 9.48188C126.583 9.49598 126.673 9.51008 126.877 9.51138C127.024 9.49072 127.057 9.48287 127.089 9.47501C128.026 9.48858 128.962 9.50216 129.99 9.5033C130.566 9.79889 131.05 10.1069 131.597 10.5373C131.739 11.7895 131.819 12.9192 131.898 14.049ZM128.752 13.8646C128.786 11.9652 128.623 11.8581 126.321 12.3055C126.321 12.8764 126.321 13.4569 126.28 14.2094C126.567 14.6995 128.482 14.8628 128.77 14.4084C128.82 14.3291 128.734 14.165 128.752 13.8646ZM126.644 17.2295C126.52 17.3859 126.3 17.5367 126.29 17.6998C126.25 18.3791 126.273 19.0622 126.273 19.7726H128.758V17.2255C128.076 17.2255 127.453 17.2255 126.644 17.2295ZM120.848 17.9378V19.7534H123.215V17.2457C122.548 17.2457 121.952 17.2059 121.368 17.2687C121.18 17.289 121.021 17.5797 120.848 17.9378ZM122.192 12.2079H120.934V14.5572H123.258V12.2842C122.958 12.2582 122.672 12.2334 122.192 12.2079Z" fill="#340C0A"/>
<path d="M87.6882 0.996006C88.8753 1.54202 89.0281 2.09116 88.3025 3.25138C88.074 3.37702 87.9363 3.43578 87.7057 3.48049C86.6055 3.48355 85.5982 3.50066 84.5909 3.51777C83.8176 3.45416 83.0443 3.39056 82.1981 3.3102C81.9964 2.76088 81.6216 2.10926 81.8077 1.72911C81.9952 1.3462 82.7254 1.18804 83.2466 1.01916C83.5423 0.923346 83.8957 1.00364 84.3109 0.983999C85.4647 0.980519 86.5309 0.997657 87.6882 0.996006Z" fill="#340C0A"/>
<path d="M81.0591 4.61263C82.2058 4.54122 83.3118 4.52996 84.6022 4.51456C85.7841 4.50314 86.7817 4.49588 87.8637 4.50248C89.5942 4.49732 90.0202 5.04497 89.4949 6.63427C88.9352 6.79175 88.4427 6.90601 87.8593 7.02167C86.6461 7.04095 85.5239 7.05884 84.3103 7.05533C83.222 7.05271 82.225 7.07148 81.2099 7.03707C81.0995 6.9242 81.0073 6.86451 80.9129 6.80274C80.9107 6.80065 80.9069 6.80505 80.9069 6.80505C80.3326 6.06271 80.2194 5.3442 81.0591 4.61263Z" fill="#340C0A"/>
<path d="M189.718 9.54282C190.797 9.56865 191.875 9.59449 193.045 9.59881C194.289 9.5823 195.441 9.5873 196.759 9.58799C197.982 9.69136 199.04 9.79903 200.097 9.90671C200.16 10.0564 200.223 10.2062 200.298 10.4892C200.241 11.0598 200.171 11.4971 200.026 11.9776C198.943 12.1141 197.935 12.2075 196.835 12.2842C196.095 12.2676 195.446 12.2676 194.732 12.2676C194.732 12.951 194.732 13.4979 194.714 14.136C194.705 15.29 194.716 16.353 194.705 17.5046C194.683 18.0954 194.683 18.5977 194.683 19.12C195.452 19.12 196.094 19.12 196.827 19.137C198.042 19.1158 199.167 19.0776 200.355 19.075C200.516 19.1183 200.613 19.126 200.774 19.1696C201.063 19.799 201.287 20.3926 201.47 21.0395C200.992 21.3926 200.556 21.6925 200.028 21.9743C198.864 21.965 197.792 21.9737 196.629 21.9652C195.403 21.9631 194.269 21.9782 193.044 21.9693C191.88 21.9622 190.807 21.9793 189.643 21.9755C188.484 21.9675 187.416 21.9804 186.298 21.978C186.216 21.973 186.183 21.9835 186.08 21.9757C185.589 21.6332 185.169 21.3089 184.759 20.9026C184.687 19.8318 184.974 19.1279 186.213 19.1144C187.456 19.1356 188.607 19.129 189.844 19.1371C190.413 19.1517 190.895 19.1517 191.458 19.1517C191.424 18.4806 191.397 17.9605 191.4 17.3507C191.412 16.1852 191.396 15.1095 191.407 13.9466C191.453 12.1443 191.743 12.2927 189.847 12.3063C189.815 12.3066 189.783 12.3158 189.659 12.3012C188.433 12.1986 187.298 12.1155 186.152 11.9554C186.087 11.4055 186.034 10.9327 186.021 10.4134C186.174 10.1515 186.287 9.93603 186.472 9.70038C187.603 9.63441 188.661 9.58861 189.718 9.54282Z" fill="#340C0A"/>
<path d="M119.501 80.527C118.361 80.703 117.221 80.879 115.918 81.0684C114.671 81.1908 113.586 81.2999 112.413 81.3874C111.199 81.3591 110.075 81.3524 108.863 81.3223C107.631 81.1659 106.485 81.0328 105.266 80.8734C104.514 80.7182 103.836 80.5892 103.114 80.4068C102.629 80.217 102.188 80.0807 101.681 79.9111C100.53 79.3534 99.4461 78.8288 98.3311 78.2452C97.7893 77.8288 97.2782 77.4716 96.7413 77.0531C96.139 76.4162 95.5624 75.8404 94.9709 75.2003C94.5653 74.5333 94.1748 73.9307 93.7714 73.2564C93.427 72.1819 93.0953 71.1792 92.7715 70.0843C92.9001 68.8594 93.0209 67.7267 93.184 66.5417C93.821 65.9558 94.4158 65.4221 95.0907 64.8775C96.2814 64.5358 97.3436 64.6853 98.4169 65.233C98.8922 65.723 99.3212 66.165 99.7636 66.6797C100.295 67.9729 100.813 69.1933 101.347 70.471C101.497 70.6726 101.63 70.8169 101.79 71.0223C102.984 71.7207 104.151 72.3578 105.375 73.0452C106.594 73.2852 107.758 73.4748 108.999 73.6954C110.23 73.7148 111.384 73.7033 112.621 73.7008C113.774 73.5817 114.843 73.4535 115.993 73.3333C117.222 73.0684 118.37 72.7956 119.592 72.5247C120.809 72.0613 121.95 71.596 123.17 71.1431C125.783 70.3489 127.273 71.037 128.442 73.6443C128.648 74.8545 128.41 75.8942 127.803 76.9078C127.388 77.302 127.031 77.6658 126.617 78.0511C126.512 78.1328 126.465 78.193 126.421 78.2273C126.425 78.2014 126.373 78.1927 126.31 78.2202C125.128 78.714 124.007 79.1803 122.808 79.6503C121.723 79.9326 120.717 80.2113 119.655 80.4813C119.567 80.4908 119.534 80.5089 119.501 80.527Z" fill="#340907"/>
<path d="M54.9353 73.5576C55.7993 71.1092 57.3153 69.2338 59.8591 68.0906C61.0725 67.6907 62.1661 67.357 63.3362 67.0355C63.5616 67.0128 63.7105 66.9779 63.9478 66.9486C64.5001 66.8959 64.964 66.8376 65.4913 66.8099C65.7821 66.8224 66.0096 66.8045 66.3016 66.8127C66.4566 66.828 66.5472 66.8171 66.7035 66.8536C67.2529 66.9435 67.7372 67.019 68.2195 67.0075C68.3558 67.0043 68.486 66.7469 68.6295 66.518C68.5142 65.3616 68.3883 64.2934 68.2743 63.175C68.2706 63.0943 68.255 63.0637 68.2538 62.947C68.2214 61.6676 67.3382 62.408 66.7503 62.2373C65.5201 62.2879 64.3826 62.3527 63.1534 62.3997C61.9937 62.4024 60.9257 62.4231 59.7722 62.4252C58.5513 62.2092 57.4159 62.0118 56.2564 61.7524C55.7778 61.0139 55.3233 60.3373 54.8783 59.5731C54.6819 58.0781 55.2297 56.9878 56.3562 56.1191C56.3939 56.1129 56.4531 56.065 56.5284 56.059C57.6931 55.9012 58.7825 55.7493 59.9623 55.6171C61.1123 55.6294 62.1718 55.6222 63.3189 55.6315C64.6858 55.6482 65.9652 55.6482 67.4212 55.6482C67.1298 54.475 66.9104 53.5916 66.6897 52.6265C66.4434 51.6051 66.1985 50.6653 65.9406 49.6755C64.9527 49.7827 64.1032 49.8749 63.1672 49.9541C62.0011 50.0265 60.9216 50.112 59.7524 50.1857C58.6043 49.9592 57.5459 49.7446 56.4639 49.472C56.2611 49.2425 56.0819 49.0709 55.8808 48.8307C54.9501 46.9718 55.1232 45.7919 56.596 44.1992C57.734 43.8827 58.8027 43.5774 59.9514 43.2829C61.1029 43.1949 62.1745 43.0962 63.3375 43.0103C64.5673 42.9419 65.7058 42.8606 66.9332 42.791C68.0895 42.7216 69.1569 42.6407 70.3092 42.5693C71.2769 42.4797 72.1598 42.3805 73.121 42.2888C73.4057 42.263 73.612 42.2297 73.9036 42.2136C74.6407 42.0675 75.4362 42.4629 75.9032 41.5827C76.4072 40.6329 77.0473 39.7545 77.6898 38.8191C78.7668 38.2048 79.7821 37.6164 80.8808 37.028C82.1091 36.9669 83.2539 36.9058 84.468 36.8725C85.5637 37.3435 86.5901 37.7867 87.6443 38.2806C87.7705 38.3896 87.8689 38.4478 87.9791 38.5474C88.0301 38.64 88.0815 38.6595 88.1703 38.7105C88.9137 39.924 89.6319 41.0742 90.3503 42.308C90.4242 43.4532 90.498 44.5148 90.5313 45.6387C90.0492 46.7754 89.6078 47.8498 89.1112 48.9553C88.8283 49.2802 88.6005 49.5741 88.3215 49.891C88.1932 49.9934 88.1161 50.0727 88.0201 50.1484C88.0011 50.1447 87.9972 50.183 87.935 50.2067C86.7131 50.7938 85.5534 51.3572 84.344 51.9118C84.2632 51.9157 84.2321 51.9284 84.1082 51.9323C82.9441 51.8611 81.8727 51.7988 80.7385 51.7028C79.603 51.0167 78.5304 50.3644 77.4319 49.6427C77.1111 49.0169 76.6634 48.8364 76.0378 48.943C75.3705 49.0567 74.6914 49.1021 73.9407 49.1627C73.4837 49.0797 73.2027 49.0749 73.3829 49.6161C73.5689 50.1748 73.6948 50.7533 73.84 51.3933C73.9288 51.8206 74.0247 52.1777 74.128 52.6178C74.2989 53.3903 74.4624 54.0797 74.6389 54.8237C75.6389 54.6942 76.5209 54.58 77.4845 54.4748C78.6498 54.3427 79.7336 54.2016 80.8887 54.084C82.1791 54.327 82.9911 55.0567 83.5381 56.2121C83.9785 57.5133 83.7354 58.6274 82.9443 59.6968C82.1872 60.0958 81.4892 60.461 80.7091 60.8224C79.5556 61.0279 78.4841 61.2372 77.3273 61.4351C76.6514 61.4902 76.0609 61.5566 75.4589 61.6244C75.5436 62.1952 75.605 62.6085 75.6593 63.1049C75.771 64.3255 75.8897 65.463 75.9909 66.6902C76.1017 67.779 75.5159 69.0896 77.1874 69.4899C77.5715 69.6946 77.9132 69.8431 78.2839 70.0353C78.4106 70.1174 78.5083 70.1559 78.6303 70.2472C78.7618 70.3415 78.8691 70.383 79.0178 70.4757C79.6144 70.9015 80.1694 71.2761 80.7467 71.64C80.7691 71.6293 80.7436 71.587 80.7566 71.6495C80.8429 71.7542 80.9161 71.7965 81.0201 71.895C81.7664 72.5493 82.4819 73.1473 83.2254 73.8069C83.5814 74.4832 83.9096 75.0979 84.228 75.8005C84.2198 76.2995 84.2213 76.7108 84.1976 77.1823C84.1527 77.3271 84.1329 77.4116 84.0673 77.5429C83.4407 79.0511 82.4044 79.9041 80.711 79.96C79.3508 79.8966 78.5342 78.9937 77.5668 78.2543C76.8677 77.6873 76.1992 77.179 75.6079 76.7294C74.9269 78.0694 74.2928 79.3172 73.6091 80.604C72.4444 81.4771 71.3294 82.3111 70.1381 83.169C69.3206 83.4241 68.5796 83.6554 67.7649 83.8798C67.4055 83.9456 67.1197 84.0182 66.7414 84.0804C65.5183 84.0793 64.3879 84.0885 63.1781 84.069C60.353 83.8633 58.0876 82.7188 56.2643 80.685C56.2648 80.6847 56.266 80.6834 56.2471 80.6172C55.7487 79.4042 55.2692 78.2573 54.7905 77.0191C54.8393 75.8044 54.8873 74.681 54.9353 73.5576ZM81.3831 41.7966C81.3831 41.7966 81.3649 41.7665 81.2572 41.789C81.1841 41.8645 81.111 41.94 80.9172 42.0424C80.8181 42.166 80.7189 42.2895 80.5128 42.5049C79.8097 43.472 79.7279 44.508 80.1856 45.7165C80.2884 45.8765 80.3913 46.0365 80.5635 46.3211C81.6199 47.6322 82.9811 47.9406 84.5468 47.1719C84.9674 46.6438 85.3879 46.1157 85.9158 45.4604C85.9672 45.1091 86.0574 44.7584 86.063 44.4064C86.0851 43.0315 85.5409 42.2474 84.3605 41.9377C84.3605 41.9377 84.3946 41.9085 84.4194 41.7942C84.3807 41.726 84.3421 41.6578 84.2382 41.4827C84.1583 41.4672 84.0784 41.4517 83.8571 41.3598C83.1062 41.4459 82.3552 41.532 81.4942 41.6188C81.448 41.6708 81.4017 41.7228 81.3831 41.7966ZM66.4634 72.7306C65.4582 72.8138 64.453 72.8971 63.3086 72.9834C63.134 73.0762 62.9624 73.1749 62.7845 73.261C61.9802 73.6505 61.4416 74.2282 61.4728 75.1725C61.5043 76.1271 62.0283 76.755 62.871 77.1587C63.9736 77.687 65.0897 77.7502 66.3512 77.2863C66.5123 77.1665 66.6733 77.0468 66.9663 76.8883C68.013 76.0191 68.4969 74.917 68.3606 73.4207C67.8496 73.2167 67.3386 73.0126 66.7383 72.7694C66.7383 72.7694 66.6422 72.7867 66.4634 72.7306Z" fill="#340907"/>
<path d="M40.0759 45.5625C39.669 45.8353 39.262 46.108 38.7199 46.3783C38.2938 46.1103 38.0028 45.8448 37.7155 45.4866C37.7118 44.3321 37.7043 43.2703 37.715 42.1244C37.7297 41.6973 37.7262 41.3541 37.7559 40.9356C37.8313 40.1202 37.8734 39.3801 37.9486 38.5676C38.2122 37.355 38.4427 36.215 38.7085 35.0118C39.6777 32.6089 40.0174 32.3977 42.3071 32.8086C43.3843 33.4066 44.4077 33.9627 45.4604 34.5745C45.7764 34.784 46.0631 34.9378 46.3793 35.1583C47.2957 35.9022 48.1828 36.5796 49.0993 37.3167C49.5685 37.7992 50.0082 38.2219 50.45 38.7231C50.5944 39.7218 50.0558 40.1575 49.2071 40.4105C48.5995 40.1611 48.0332 39.982 47.5439 39.6798C46.9592 39.3187 46.4403 38.8523 45.8608 38.3733C44.6538 37.5529 43.4789 36.7909 42.2641 35.9708C41.9644 35.8213 41.7046 35.7299 41.3202 35.5947C41.1505 36.6208 41.0028 37.5143 40.7935 38.4679C40.7057 39.7616 40.6794 40.9952 40.6217 42.2653C40.5904 42.3018 40.6208 42.393 40.6 42.4489C40.5896 42.5432 40.6 42.5816 40.5869 42.6892C40.5614 43.104 40.5596 43.4495 40.538 43.8769C40.4712 44.2911 40.4243 44.6234 40.3458 45.0029C40.2347 45.2209 40.1553 45.3917 40.0759 45.5625Z" fill="#330C0A"/>
<path d="M84.3086 8.11777C85.5236 8.11711 86.6513 8.13712 87.8707 8.154C88.9842 8.79632 89.0911 9.37376 88.3125 10.3716C88.138 10.45 88.0137 10.4696 87.7401 10.51C86.5302 10.5413 85.4696 10.5516 84.4091 10.562C83.7038 10.5245 82.9986 10.4871 82.2095 10.4414C81.9729 9.93588 81.5818 9.34313 81.7339 8.96801C81.8885 8.58674 82.5545 8.35182 83.0421 8.18209C83.3968 8.05863 83.8255 8.14541 84.3086 8.11777Z" fill="#340C0A"/>
<path d="M88.3297 13.8969C88.1534 13.9702 88.0306 13.9908 87.7575 14.0121C86.9339 14.0272 86.2605 14.0416 85.587 14.0561C84.451 13.9936 83.315 13.9312 82.098 13.8528C81.9168 13.3262 81.592 12.7012 81.7796 12.3373C81.9652 11.9772 82.6532 11.8296 83.1492 11.6861C83.482 11.5899 83.8644 11.6635 84.4057 11.6569C85.6524 11.6502 86.718 11.6478 87.7835 11.6455C88.997 12.1203 89.1877 12.8197 88.3297 13.8969Z" fill="#340C0A"/>
<path d="M87.7925 15.2152C88.6983 15.6072 88.9427 16.3668 88.9424 17.4297C88.9526 18.7258 88.9639 19.854 88.9526 21.0549C88.8695 21.4742 88.8089 21.8207 88.6931 22.1953C88.4203 22.4103 88.2027 22.5972 87.8917 22.7834C86.8171 22.7928 85.8333 22.7674 84.8564 22.8373C84.5986 22.8557 84.3621 23.1688 84.1158 23.3465C83.6118 23.868 83.032 24.0689 82.3311 23.7669C81.6403 23.4693 81.5175 22.8753 81.5178 22.2211C81.5185 20.6785 81.5233 19.1358 81.5132 17.5009C81.6487 15.5163 82.0213 15.2054 84.3786 15.157C85.6348 15.1783 86.7137 15.1968 87.7925 15.2152ZM86.2564 18.122C86.217 17.9682 86.1918 17.6866 86.1361 17.6805C85.593 17.6211 85.0277 17.5248 84.5082 17.6307C84.3482 17.6633 84.2575 18.279 84.2271 18.6355C84.181 19.1785 84.2151 19.7281 84.2151 20.3062H86.2577C86.2577 19.6089 86.2577 18.963 86.2564 18.122Z" fill="#340C0A"/>
<path d="M94.6792 15.8268C95.9077 15.8307 97.0442 15.8512 98.2711 15.8467C99.477 15.8296 100.593 15.8129 101.708 15.8516C103.048 15.8982 103.643 16.3103 103.792 17.3828C103.153 18.2248 102.555 18.927 101.895 19.6495C101.395 20.0006 100.959 20.3314 100.401 20.755C100.907 20.8694 101.252 20.9465 101.597 21.0253C102.706 21.2792 103.815 21.5338 104.924 21.7881C104.906 23.3259 103.736 24.0983 101.755 23.7605C100.525 23.468 99.4481 23.1946 98.3227 22.872C97.475 22.2995 96.6812 22.4592 95.8747 22.818C95.5182 22.9766 95.1358 23.0775 94.6885 23.2045C93.5344 23.4577 92.457 23.7111 91.3035 23.9537C90.0531 23.9352 89.7121 23.077 89.4404 22.1188C89.8195 21.8919 90.1503 21.6633 90.5154 21.575C91.7153 21.285 92.9277 21.0459 94.3173 20.7482C93.8142 20.3467 93.4798 20.0877 93.1542 19.8182C92.635 19.3882 92.5799 18.9648 93.168 18.5344C93.3159 18.4261 93.418 18.2558 93.5781 18.1471C93.644 18.1649 93.6729 18.1496 93.7018 18.1343C93.6764 18.1138 93.6517 18.0781 93.6256 18.0772C93.5993 18.0762 93.5718 18.1098 93.4576 18.1083C92.7127 18.1046 92.0551 18.1208 91.3204 18.1164C90.8399 17.8646 90.4364 17.6332 90.0382 17.3524C90.0268 17.274 90.0101 17.2452 89.9934 17.2164C90.0484 16.4377 90.3723 15.9073 91.3101 15.8529C92.4482 15.8314 93.5177 15.8374 94.6792 15.8268ZM95.3562 18.0459C95.3013 18.0675 95.2428 18.0833 95.1933 18.1137C95.1733 18.126 95.1555 18.1819 95.1665 18.1985C96.2531 19.8328 98.0787 19.8229 99.4074 18.0507C98.045 18.0507 96.7749 18.0507 95.3562 18.0459Z" fill="#340C0A"/>
<path d="M225.934 73.5184C225.999 74.684 226.013 75.8123 226.009 77.0225C225.553 77.5877 225.114 78.071 224.576 78.6314C222.401 79.937 220.118 80.6098 217.709 81.171C216.506 81.3742 215.385 81.5726 214.175 81.7695C212.955 81.8825 211.827 81.997 210.605 82.0964C209.436 82.0978 208.359 82.1142 207.209 82.1151C205.997 82 204.858 81.9004 203.653 81.764C202.427 81.4536 201.267 81.1801 200.038 80.875C199.631 80.7838 199.292 80.7241 198.932 80.5978C198.194 80.1638 197.477 79.7965 196.719 79.3773C195.704 78.5844 194.73 77.8435 193.734 77.0429C193.528 76.8078 193.344 76.6325 193.14 76.3948C192.518 75.4054 191.917 74.4784 191.313 73.476C191.044 72.322 190.778 71.2435 190.497 70.0896C190.168 68.7237 190.882 67.7124 191.393 66.6302C191.379 66.6102 191.339 66.6386 191.403 66.6317C191.515 66.5554 191.563 66.4861 191.673 66.3975C192.254 66.0843 192.774 65.7904 193.385 65.4897C194.662 65.2813 195.727 65.5921 196.73 66.2854C196.862 66.4296 196.979 66.5188 197.12 66.6742C197.637 67.9038 198.13 69.0673 198.641 70.2987C199.081 70.8979 199.504 71.4292 199.958 72.0188C201.16 72.6863 202.33 73.2955 203.539 73.9198C203.696 73.9318 203.815 73.9287 204.014 73.9615C205.152 74.1244 206.211 74.2515 207.356 74.4175C208.525 74.4193 209.607 74.382 210.778 74.3604C213.135 73.962 215.403 73.5481 217.721 73.1422C217.803 73.1351 217.834 73.1199 217.936 73.0987C219.093 72.6476 220.178 72.2025 221.346 71.7553C222.641 71.3481 223.766 71.5961 224.841 72.2082C225.188 72.6325 225.536 73.0568 225.934 73.5184Z" fill="#340907"/>
<path d="M167.182 82.6577C166.531 82.8703 165.933 83.0475 165.265 83.2564C163.597 83.3573 162 83.4266 160.31 83.5026C159.625 83.3938 159.034 83.278 158.361 83.161C157.103 82.5422 155.927 81.9248 154.663 81.227C154.328 80.922 154.081 80.6974 153.808 80.4107C153.19 79.2719 152.598 78.1951 152.006 77.037C151.55 75.069 151.652 73.1941 152.137 71.2981C152.147 71.2691 152.105 71.2245 152.171 71.2039C152.262 71.0951 152.286 71.0068 152.356 70.8785C152.466 70.6139 152.531 70.3894 152.611 70.095C152.895 69.6295 153.143 69.2185 153.436 68.8415C154.022 68.086 154.529 67.218 155.263 66.6397C156.063 66.0092 157.083 65.6543 158.08 65.171C159.296 64.8774 160.438 64.5919 161.664 64.3275C162.893 64.4063 164.038 64.464 165.254 64.5564C165.879 64.7655 165.84 64.4062 165.795 64.0626C165.693 63.2878 165.58 62.5144 165.453 61.6076C164.215 61.6911 162.908 61.7793 161.509 61.8541C160.29 61.8835 159.163 61.9263 157.948 61.9367C156.915 61.8338 155.97 61.7633 154.962 61.6675C154.811 61.6379 154.721 61.6336 154.579 61.5858C152.073 60.5521 151.503 58.382 153.149 56.055C153.684 55.7388 154.161 55.445 154.729 55.145C155.819 55.1168 156.816 55.0947 157.905 55.0888C159.204 55.0874 160.411 55.07 161.705 55.0656C162.731 55.0293 163.669 54.9798 164.684 54.9262C164.486 54.0506 164.315 53.2919 164.151 52.4566C164.044 51.9069 163.95 51.4279 163.811 50.9618C163.158 48.7637 163.49 49.1652 161.322 49.3755C160.564 49.4387 159.889 49.5078 159.163 49.5631C159.08 49.5621 159.047 49.575 158.944 49.5779C158.639 49.6018 158.406 49.6356 158.113 49.651C157.978 49.6617 157.903 49.6909 157.737 49.7069C157.106 49.7125 156.565 49.7312 155.953 49.7192C155.483 49.6097 155.083 49.5309 154.629 49.4141C154.266 49.21 153.956 49.044 153.625 48.8161C153.289 48.163 152.974 47.5718 152.667 46.8967C152.661 46.5334 152.647 46.254 152.66 45.9086C152.664 45.7537 152.641 45.6648 152.638 45.509C153.325 44.713 153.992 43.9839 154.739 43.2462C155.943 43.0528 157.067 42.868 158.285 42.6976C160.197 42.5721 162.013 42.4322 163.913 42.2836C164.33 42.2471 164.664 42.2194 165.047 42.2075C165.129 42.2111 165.161 42.199 165.281 42.1988C166.448 42.1144 167.527 42.018 168.686 41.9327C169.903 41.8272 171.039 41.7105 172.255 41.6067C172.617 41.4204 172.993 41.2799 173.168 41.0107C173.669 40.2438 174.088 39.4245 174.595 38.589C175.036 38.1866 175.421 37.8211 175.874 37.444C177.021 37.0049 178.101 36.5773 179.27 36.1558C180.49 36.2545 181.62 36.3471 182.801 36.4892C183.94 37.2495 185.027 37.9603 186.138 38.7341C186.546 39.3578 186.931 39.9185 187.321 40.5446C187.411 40.8118 187.495 41.0136 187.579 41.2858C187.652 41.5784 187.726 41.8006 187.798 42.1038C187.787 43.3139 187.779 44.443 187.74 45.6397C186.933 48.2837 185.192 49.9628 182.667 50.9883C181.448 51.1045 180.306 51.2168 179.099 51.2925C177.948 50.8169 176.861 50.378 175.742 49.8851C175.42 49.5896 175.131 49.3481 174.82 49.0493C174.657 48.8502 174.515 48.7083 174.36 48.518C174.296 48.4296 174.244 48.3897 174.158 48.2771C173.566 48.2894 173.009 48.3742 172.419 48.4271C172.326 48.3626 172.266 48.3607 172.136 48.3766C171.724 48.4986 171.38 48.6333 170.969 48.8067C171.116 49.9325 171.33 51.0197 171.543 52.1925C171.629 52.793 171.719 53.3076 171.803 53.8231C171.892 54.3688 172.215 54.3287 172.687 54.1579C173.714 54.043 174.654 53.9127 175.643 53.7894C175.72 53.7754 175.746 53.7543 175.859 53.7414C176.935 53.7507 177.924 53.7519 178.958 53.8048C180.123 54.2133 180.646 55.1058 181.058 56.1916C181.326 57.4465 180.882 58.4092 180.127 59.3063C180.025 59.3548 179.986 59.4045 179.897 59.4884C178.426 59.9193 177.022 60.3291 175.524 60.7333C174.562 60.8511 173.693 60.9745 172.784 61.1036C172.911 61.8313 173.018 62.4433 173.112 63.145C173.195 64.3582 173.29 65.4817 173.369 66.692C173.169 67.9328 173.564 68.7381 174.74 69.0922C174.956 69.1573 175.153 69.2869 175.392 69.4372C175.539 69.5292 175.651 69.5709 175.801 69.6679C176.949 70.4603 178.06 71.1974 179.213 71.9867C179.87 72.6183 180.486 73.1979 181.11 73.8452C181.212 74.1209 181.305 74.329 181.392 74.5933C181.427 74.7517 181.467 74.8537 181.501 75.0333C181.521 75.3161 181.547 75.5214 181.556 75.8034C181.476 76.2907 181.413 76.7011 181.299 77.1556C180.541 77.8768 179.834 78.554 179.04 79.2376C177.857 79.4989 176.875 79.19 175.895 78.5967C175.432 78.1725 175.028 77.786 174.589 77.442C173.222 76.3678 172.711 76.4982 172.046 78.0671C171.957 78.2764 171.882 78.4914 171.738 78.7297C171.302 79.2991 170.928 79.8427 170.497 80.4246C169.813 80.982 169.186 81.5011 168.559 82.0202C168.118 82.2209 167.677 82.4217 167.182 82.6577ZM164.868 68.3661C164.049 68.6899 163.663 69.3183 163.515 70.2835C163.536 71.6835 163.908 72.0513 165.332 71.9426C165.731 71.3472 166.129 70.7519 166.575 69.9995C166.545 68.5933 166.317 68.3629 164.868 68.3661ZM166.205 74.4826C166.959 75.5166 167.901 75.4696 168.901 74.2685C169.003 74.0657 169.205 73.8547 169.189 73.6617C169.146 73.1404 169.179 72.4048 168.866 72.1679C168.497 71.8893 167.707 71.8513 167.257 72.0547C166.344 72.4684 165.966 73.302 166.205 74.4826ZM159.413 70.1148C159.65 70.8948 160.06 71.5605 160.978 71.4722C161.768 71.3964 162.223 70.779 162.221 70.0343C162.219 69.4177 161.957 68.8019 161.763 68.0456C160.852 67.2633 159.921 67.4056 159.531 68.4646C159.364 68.9186 159.454 69.4658 159.413 70.1148ZM161.738 78.9348C162.819 79.2075 163.774 80.106 165.154 79.5443C166.145 79.0057 166.364 78.1512 166.167 76.9801C165.79 76.4102 165.412 75.8404 165.035 75.1315C164.631 74.5784 164.227 74.0252 163.771 73.3462C163.463 73.1611 163.173 72.8698 162.843 72.8147C162.284 72.7215 161.61 72.3604 161.061 73.141C160.049 73.8718 159.036 74.6025 157.896 75.4067C157.214 76.1962 157.158 77.0774 157.619 77.9648C158.075 78.8423 158.923 78.985 159.824 78.9479C160.416 78.9234 161.009 78.8998 161.738 78.9348ZM182.788 45.6415C183.65 44.2624 183.61 42.7418 182.684 41.6343C181.751 40.5195 180.545 40.2374 179.027 40.8198C178.671 41.1454 178.315 41.4711 177.838 41.8734C177.677 42.2294 177.445 42.571 177.369 42.944C177.114 44.1971 177.375 45.1546 178.492 46.0772C179.866 47.2125 181.775 47.1887 182.623 45.6486C182.623 45.6486 182.639 45.6452 182.788 45.6415ZM158.1 73.547C158.816 72.7487 158.678 71.8283 158.313 70.9881C157.912 70.0646 156.592 69.8172 156.097 70.5114C155.538 71.2949 155.659 72.155 156.118 72.9288C156.518 73.6046 157.127 73.9657 158.1 73.547Z" fill="#340907"/>
<path d="M148.314 77.1015C147.928 78.2077 147.542 79.314 147.1 80.4726C146.217 81.6034 145.495 82.8061 143.912 83.0965C142.838 82.9765 141.835 82.8291 140.76 82.6665C140.124 81.9454 139.562 81.2394 138.933 80.4175C138.529 79.2398 138.191 78.178 137.856 77.0358C137.588 75.2262 137.316 73.4971 137.058 71.6869C137.011 71.1308 136.949 70.6556 136.906 70.0886C136.888 68.8697 136.851 67.7426 136.832 66.5233C136.853 65.3639 136.858 64.2967 136.886 63.1439C136.963 61.9257 137.018 60.7931 137.103 59.5896C137.165 59.1054 137.197 58.6921 137.249 58.2034C137.53 56.1921 137.79 54.2561 138.068 52.2425C138.277 51.1605 138.466 50.1559 138.693 49.0841C139.007 47.891 139.285 46.7652 139.6 45.5857C140.004 45.0277 140.37 44.5233 140.806 44.0085C141.843 43.3189 142.94 43.3328 144.105 43.4431C145.194 43.7945 145.949 44.4339 146.443 45.4323C146.481 45.535 146.524 45.5854 146.578 45.629C146.59 45.6222 146.579 45.6462 146.584 45.7333C146.484 46.9323 146.377 48.0442 146.243 49.2285C145.971 50.439 145.726 51.5771 145.453 52.7766C145.417 52.9274 145.41 53.0169 145.355 53.1658C145.152 54.1798 144.997 55.1345 144.805 56.1606C144.655 57.3744 144.542 58.5169 144.39 59.7331C144.308 60.8854 144.265 61.9639 144.193 63.1229C144.18 64.3322 144.196 65.461 144.19 66.6812C144.219 68.1788 144.272 69.585 144.325 70.9912C145.163 69.6588 145.962 68.4726 147.7 68.3035C150.053 68.7107 150.973 70.2506 150.212 72.4066C150.082 72.7751 149.955 73.1447 149.77 73.558C149.247 74.7687 148.781 75.9351 148.314 77.1015Z" fill="#340907"/>
<path d="M221.245 47.0476C222 47.6669 222.755 48.2863 223.584 48.9885C223.717 49.1165 223.776 49.1617 223.835 49.2069C223.835 49.2069 223.8 49.206 223.794 49.222C224.04 50.2747 224.292 51.3114 224.557 52.431C224.551 52.5441 224.532 52.5743 224.481 52.7144C223.905 53.9044 223.361 54.9845 222.758 56.0949C222.216 56.635 221.732 57.1447 221.184 57.6769C220.436 58.225 219.753 58.7506 218.999 59.2848C218.575 59.4165 218.223 59.5396 217.787 59.652C217.158 59.587 216.613 59.5326 216.01 59.444C215.459 59.0317 214.966 58.6536 214.456 58.2052C214.256 57.4547 214.072 56.7744 213.909 56.0228C214.058 55.5544 214.186 55.1573 214.374 54.7267C215.064 54.0858 215.696 53.4785 216.563 52.6449C214.688 52.3136 213.085 52.0303 211.434 51.7296C211.353 51.7182 211.32 51.7242 211.223 51.6991C211.02 51.6562 210.88 51.6446 210.661 51.601C209.464 51.5147 208.346 51.4603 207.156 51.3812C205.956 51.4173 204.829 51.4782 203.615 51.5284C202.523 51.6623 201.518 51.8068 200.465 51.9402C200.346 51.9292 200.289 51.9576 200.241 52.0222C200.235 52.0299 200.216 52.03 200.13 52.0289C198.934 51.9429 197.825 51.858 196.661 51.7316C195.681 51.0983 195.23 50.2078 195.018 49.0849C194.926 47.5978 195.484 46.4848 196.583 45.5588C196.792 45.4374 196.936 45.3339 197.15 45.2262C198.235 44.9752 199.25 44.7283 200.361 44.4897C201.537 44.3902 202.618 44.2824 203.792 44.1882C205.026 44.1805 206.167 44.1593 207.399 44.156C208.551 44.2222 209.611 44.2704 210.758 44.3426C211.992 44.4985 213.139 44.6304 214.363 44.786C215.514 45.0555 216.587 45.3014 217.72 45.5669C217.861 45.5871 217.942 45.5875 218.075 45.6399C219.165 46.1437 220.205 46.5956 221.245 47.0476Z" fill="#340907"/>
<path d="M126.496 52.5222C126.427 52.676 126.357 52.8297 126.22 53.0815C125.505 54.1367 124.856 55.0939 124.207 56.051C123.792 56.4059 123.378 56.7608 122.937 57.1722C121.83 57.7856 120.751 58.3426 119.596 58.9217C117.871 58.9218 116.709 58.2175 116.163 56.494C116.118 56.356 116.109 56.324 116.115 56.2095C116.117 55.8479 116.103 55.5687 116.109 55.2183C116.271 53.9387 117.235 53.3151 118.062 52.518C118.082 52.288 118.086 51.9434 117.988 51.9122C117.342 51.7053 116.674 51.5656 115.938 51.3861C114.756 51.2025 113.649 51.0368 112.468 50.8337C111.232 50.7552 110.07 50.7141 108.826 50.6497C107.618 50.6952 106.492 50.7641 105.285 50.8189C104.12 50.9828 103.035 51.1609 101.859 51.331C100.723 51.1813 99.6794 51.0396 98.6089 50.8461C98.513 50.7609 98.4436 50.7276 98.3742 50.6943C98.0623 50.2132 97.7505 49.7321 97.3952 49.1987C97.1191 47.9629 97.0676 46.8015 97.8014 45.6628C98.0674 45.3698 98.3075 45.1472 98.6406 44.8462C99.8039 44.4342 100.874 44.1006 102.031 43.7773C103.2 43.6806 104.282 43.5735 105.443 43.4876C106.659 43.4664 107.795 43.4239 109.021 43.3982C110.251 43.469 111.392 43.523 112.612 43.5994C113.765 43.7352 114.838 43.8486 115.99 43.9849C117.187 44.2272 118.304 44.4465 119.431 44.6713C119.44 44.6769 119.453 44.6938 119.486 44.7304C119.52 44.7671 119.616 44.7927 119.616 44.7927C119.616 44.7927 119.713 44.7707 119.782 44.7985C120.731 45.1527 121.612 45.479 122.53 45.8614C124.07 46.702 125.513 47.5534 126.313 49.2235C126.377 50.3742 126.437 51.4482 126.496 52.5222Z" fill="#340907"/>
</g>
<defs>
<clipPath id="clip0_274_329">
<rect width="253" height="112" fill="white"/>
</clipPath>
</defs>
</svg>
