<svg width="177" height="135" viewBox="0 0 177 135" fill="none" xmlns="http://www.w3.org/2000/svg">
<path d="M152.566 76.4155C144.593 86.9167 136.668 71.8346 124.903 68.4445C113.138 65.0545 99.374 76.2715 97.0554 60.4205C96.9409 47.9496 119.907 31.7154 134.292 35.8603C150.336 40.4835 160.538 65.9143 152.566 76.4155Z" fill="#E5E5E5"/>
<path d="M134.164 13.9489C134.533 21.9553 130.529 28.7419 124.9 29.0016C119.27 29.2612 114.011 25.0148 113.642 17.0085C114.433 8.97116 117.933 0.267663 123.562 0.00800749C129.192 -0.251648 132.822 5.83311 134.164 13.9489Z" fill="#E5E5E5"/>
<path d="M157.816 30.6768C153.894 36.7004 146.724 36.987 142.124 33.7313C137.524 30.4756 137.295 24.0954 141.925 17.5533C147.473 11.4022 154.292 6.78489 158.892 10.0406C163.492 13.2963 161.899 22.7126 157.816 30.6768Z" fill="#E5E5E5"/>
<path d="M170.514 52.8158C165.23 57.9349 159.225 56.503 155.773 52.9401C152.321 49.3772 152.542 43.3499 157.826 38.2309C163.109 33.1118 172.084 31.8226 175.536 35.3855C178.988 38.9484 175.797 47.6968 170.514 52.8158Z" fill="#E5E5E5"/>
<path d="M110.387 25.41C112.674 32.1594 110.413 38.0716 105.241 39.8239C100.068 41.5762 94.7156 38.6417 92.429 31.8924C90.6907 23.4431 91.9098 17.8331 96.1549 15.1909C102.147 14.0267 108.101 18.6607 110.387 25.41Z" fill="#E5E5E5"/>
<path d="M81.4957 113.796C80.5498 126.947 65.6752 118.638 53.9676 122.222C42.26 125.805 36.853 142.717 26.2561 130.703C19.3514 120.318 29.7287 94.1779 44.0433 89.7966C60.0096 84.9099 82.4416 100.646 81.4957 113.796Z" fill="#E5E5E5"/>
<path d="M31.9733 71.5085C36.654 78.0146 37.0047 85.8865 32.4301 89.1777C27.8555 92.4688 21.1309 91.7826 16.4502 85.2766C12.7249 78.1109 10.9052 68.9082 15.4798 65.6171C20.0544 62.326 26.4178 65.4418 31.9733 71.5085Z" fill="#E5E5E5"/>
<path d="M60.9232 72.6096C60.9266 79.7972 55.0759 83.9522 49.4446 83.736C43.8133 83.5198 40.1374 78.2999 40.4448 70.2909C41.7344 62.1084 44.9267 54.5168 50.558 54.733C56.1893 54.9492 59.9959 63.7079 60.9232 72.6096Z" fill="#E5E5E5"/>
<path d="M83.6471 84.2247C82.0157 91.3981 76.2029 93.4771 71.3655 92.3768C66.5281 91.2766 63.4228 86.1061 65.0543 78.9328C66.6857 71.7594 73.5009 65.7793 78.3383 66.8795C83.1757 67.9797 85.2786 77.0514 83.6471 84.2247Z" fill="#E5E5E5"/>
<path d="M18.3121 94.0926C23.9127 98.4988 25.2465 104.686 21.8698 108.979C18.493 113.271 12.4065 113.735 6.80584 109.328C0.736327 103.199 -1.30533 97.8331 0.808655 93.3017C5.19346 89.0547 12.7114 89.6865 18.3121 94.0926Z" fill="#E5E5E5"/>
</svg>
