<svg width="34" height="28" viewBox="0 0 34 28" fill="none" xmlns="http://www.w3.org/2000/svg">
<path d="M5.28863 25.4158C7.12299 30.1618 11.6736 25.4158 16.3986 25.4158C21.1237 25.4158 25.0291 31.0461 27.5826 25.4158C28.9576 20.8035 22.1758 12.3294 16.3986 12.3294C9.95483 12.3294 3.45426 20.6698 5.28863 25.4158Z" fill="white"/>
<path d="M18.787 4.21766C17.7946 7.14719 18.5543 10.0917 20.6141 10.7895C22.6739 11.4873 25.0779 10.4746 26.0704 7.54509C26.6358 4.48006 26.2679 0.878577 24.208 0.180769C22.1482 -0.51704 20.1519 1.35148 18.787 4.21766Z" fill="white"/>
<path d="M8.22836 7.89352C9.03893 10.5463 11.6672 11.4187 13.7209 10.7029C15.7745 9.98712 16.5414 7.64568 15.5234 4.72495C14.1234 1.85112 12.0879 -0.589777 10.0342 0.126029C7.98061 0.841835 7.56517 4.50389 8.22836 7.89352Z" fill="white"/>
<path d="M1.15428 14.7465C2.56653 17.2093 4.94634 17.32 6.60718 16.3676C8.26802 15.4152 8.82995 13.1565 7.41771 10.6937C6.00546 8.23084 2.81513 6.79378 1.15429 7.74614C-0.506549 8.69851 -0.257965 12.2836 1.15428 14.7465Z" fill="white"/>
<path d="M26.3798 11.0084C24.8107 13.2669 25.0174 15.7009 26.7482 16.9034C28.4791 18.1059 30.7775 17.5896 32.3466 15.3311C33.8941 12.3836 34.0415 10.173 32.7496 8.73959C30.6518 7.66759 27.9489 8.74985 26.3798 11.0084Z" fill="white"/>
</svg>
