<svg width="603" height="389" viewBox="0 0 603 389" fill="none" xmlns="http://www.w3.org/2000/svg">
<path d="M548.853 191.347C530.939 220.861 506.203 183.731 474.641 178.095C443.079 172.459 410.276 205.409 399.935 164.755C396.252 132.306 451.66 83.7904 490.25 90.6814C533.293 98.3676 566.767 161.833 548.853 191.347Z" fill="#EAEAEA"/>
<path d="M483.972 33.6481C487.107 54.4004 478.52 73.1628 463.929 75.367C449.337 77.5713 434.487 67.9391 431.352 47.1869C431.232 26.039 437.985 2.42084 452.576 0.216616C467.168 -1.9876 478.274 12.8748 483.972 33.6481Z" fill="#EAEAEA"/>
<path d="M550.116 70.7961C541.538 87.549 522.94 90.2417 510.077 83.0107C497.213 75.7797 494.883 59.2248 505.167 40.9294C517.947 23.4029 534.454 9.52633 547.318 16.7573C560.182 23.9883 558.589 48.9453 550.116 70.7961Z" fill="#EAEAEA"/>
<path d="M589.195 125.01C576.824 139.776 560.795 137.677 550.837 129.334C540.879 120.992 539.82 105.234 552.191 90.4672C564.562 75.7007 587.587 69.907 597.545 78.2496C607.503 86.5922 601.566 110.243 589.195 125.01Z" fill="#EAEAEA"/>
<path d="M425.154 69.9519C432.942 86.9098 428.658 102.922 415.662 108.89C402.666 114.857 387.929 108.667 380.141 91.7094C373.321 70.1751 374.973 55.2329 385.312 47.1993C400.603 42.5407 417.367 52.994 425.154 69.9519Z" fill="#EAEAEA"/>
<path d="M267.166 287.356C273.676 329.076 221.279 313.849 187.322 333.454C153.364 353.06 148.658 409.728 106.945 379.86C77.925 352.417 91.503 263.376 133.022 239.405C179.332 212.668 260.657 245.636 267.166 287.356Z" fill="#EAEAEA"/>
<path d="M82.1989 191.018C101.487 207.954 108.245 232.268 96.3367 245.83C84.4287 259.392 62.9495 262.088 43.6616 245.152C26.8807 225.471 14.5811 198.061 26.4892 184.499C38.3972 170.938 60.4974 176.083 82.1989 191.018Z" fill="#EAEAEA"/>
<path d="M173.334 173.625C178.516 196.053 163.247 213.229 145.518 216.606C127.789 219.982 112.562 206.337 107.759 181.122C105.896 154.66 110.397 128.672 128.126 125.295C145.855 121.918 164.036 146.513 173.334 173.625Z" fill="#EAEAEA"/>
<path d="M252.609 193.523C252.678 217.083 236.034 227.753 220.147 227.8C204.259 227.847 190.848 213.945 190.779 190.385C190.709 166.826 207.675 143.26 223.562 143.214C239.45 143.167 252.539 169.964 252.609 193.523Z" fill="#EAEAEA"/>
<path d="M55.8082 271.326C76.4562 281.047 85.0702 299.397 77.6204 315.221C70.1707 331.045 51.5102 336.872 30.8622 327.151C7.51108 312.389 -2.72065 297.113 0.616344 281.451C11.2444 265.043 35.1603 261.605 55.8082 271.326Z" fill="#EAEAEA"/>
</svg>
