<svg width="32" height="46" viewBox="0 0 32 46" fill="none" xmlns="http://www.w3.org/2000/svg">
<path d="M0.620913 36.887C-1.58248 34.285 2.66976 33.1309 4.18597 30.3512C5.70218 27.5715 3.64318 23.4673 7.77479 23.7718C10.9294 24.4429 13.7384 31.1518 11.8845 34.5505C9.8168 38.3412 2.8243 39.4891 0.620913 36.887Z" fill="white"/>
<path d="M17.4227 35.7483C15.3808 35.3921 13.8924 34.0004 14.1428 32.5647C14.3933 31.129 15.7605 30.0397 17.8023 30.3959C19.7869 31.0468 21.7875 32.4189 21.5371 33.8546C21.2866 35.2903 19.5468 35.8651 17.4227 35.7483Z" fill="white"/>
<path d="M11.8721 40.7803C10.5716 39.4522 10.9018 37.6261 11.9819 36.6476C13.062 35.6692 14.6855 35.9694 16.077 37.5055C17.3184 39.2513 18.1012 41.232 17.0211 42.2104C15.941 43.1889 13.6534 42.2581 11.8721 40.7803Z" fill="white"/>
<path d="M5.57053 42.7428C4.57485 41.1217 5.2734 39.6862 6.36661 39.0148C7.45981 38.3433 8.96892 38.7376 9.9646 40.3587C10.9603 41.9797 10.7819 44.3177 9.68873 44.9892C8.59553 45.6606 6.5662 44.3639 5.57053 42.7428Z" fill="white"/>
<path d="M15.864 29.1025C14.0318 29.3009 12.6662 28.3982 12.5142 26.9941C12.3622 25.59 13.4035 24.4035 15.2356 24.2052C17.4662 24.2407 18.814 24.8633 19.2426 26.0833C19.2001 27.6614 17.6961 28.9042 15.864 29.1025Z" fill="white"/>
<path d="M18.8129 21.5736C15.4461 22.1125 16.6591 17.8767 15.0652 15.1408C13.4712 12.405 8.8938 12.0429 11.2924 8.66512C13.4992 6.3131 20.6935 7.38127 22.6424 10.7263C24.8161 14.4574 22.1797 21.0348 18.8129 21.5736Z" fill="white"/>
<path d="M26.5337 6.60705C25.1722 8.16991 23.211 8.72333 22.1121 7.76606C21.0133 6.80879 20.7887 5.07521 22.1501 3.51235C23.7341 2.15105 25.9435 1.14917 27.0424 2.10644C28.1413 3.06371 27.7328 4.84992 26.5337 6.60705Z" fill="white"/>
<path d="M27.9668 13.9606C26.1574 14.3862 24.7656 13.1587 24.4873 11.7281C24.209 10.2976 25.306 9.06367 27.3406 8.66787C29.4768 8.50907 31.5768 8.86424 31.8551 10.2948C32.1334 11.7253 30.1531 13.2012 27.9668 13.9606Z" fill="white"/>
<path d="M26.3851 20.3684C24.4827 20.3815 23.6159 19.0408 23.607 17.7579C23.5982 16.475 24.7165 15.3877 26.6189 15.3746C28.5213 15.3615 30.4296 16.724 30.4384 18.0069C30.4472 19.2898 28.2875 20.3553 26.3851 20.3684Z" fill="white"/>
<path d="M20.0401 4.50147C19.2617 6.17187 17.7827 6.87327 16.5025 6.27672C15.2224 5.68018 14.746 4.1752 15.5244 2.5048C16.709 0.614518 17.9393 -0.216537 19.205 0.0479553C20.5334 0.900962 20.8185 2.83107 20.0401 4.50147Z" fill="white"/>
</svg>
