<svg width="151" height="108" viewBox="0 0 151 108" fill="none" xmlns="http://www.w3.org/2000/svg">
<g clip-path="url(#clip0_348_2089)">
<path d="M148.497 97.0351C147.988 96.6692 147.681 96.4644 147.412 96.4543C146.369 96.4153 146.804 97.6958 145.45 97.8229C145.07 97.8585 144.173 97.5705 144.338 96.9052C144.603 95.8378 145.946 96.1102 146.816 96.6416C147.117 95.2029 146.904 94.0593 147.935 93.4308C148.58 93.0381 149.949 92.1055 150.752 93.0856C151.15 93.9225 150.98 95.554 150.848 96.5343C150.707 97.5884 149.269 97.5899 148.497 97.0351Z" fill="#2D1A17"/>
<path d="M137.283 100.214C138.133 100.772 137.572 104.12 136.843 104.497C136.184 104.839 135.392 104.612 134.75 104.131C133.953 103.535 133.435 102.807 133.614 101.862C133.929 100.21 136.263 99.5467 137.283 100.214Z" fill="#2D1A17"/>
<path d="M145.923 94.1312C146.083 94.9739 145.291 95.1968 144.691 95.1885C144.186 95.1815 143.392 94.9604 143.508 94.1468C143.596 93.5335 144.27 93.3868 144.672 93.4176C145.059 93.4473 145.807 93.5209 145.923 94.1312Z" fill="#2D1A17"/>
<path d="M134.262 99.0214C134.329 99.9182 133.316 99.9436 132.904 99.8164C132.496 99.6907 131.746 99.1697 132.132 98.5183C132.572 97.7759 134.192 98.0841 134.262 99.0214Z" fill="#2D1A17"/>
<path d="M132.446 101.059C132.849 101.966 131.929 102.253 131.454 102.218C130.991 102.185 129.997 102.188 130.075 101.215C130.151 100.261 131.992 100.038 132.446 101.059Z" fill="#2D1A17"/>
<path d="M146.453 93.0167C147.017 93.0167 147.474 92.5635 147.474 92.0045C147.474 91.4455 147.017 90.9923 146.453 90.9923C145.89 90.9923 145.433 91.4455 145.433 92.0045C145.433 92.5635 145.89 93.0167 146.453 93.0167Z" fill="#2D1A17"/>
<path d="M132.067 105.052C132.642 105.052 133.109 104.59 133.109 104.019C133.109 103.448 132.642 102.985 132.067 102.985C131.491 102.985 131.025 103.448 131.025 104.019C131.025 104.59 131.491 105.052 132.067 105.052Z" fill="#330F0C"/>
<path d="M121.362 101.768C120.741 103.064 118.372 103.673 117.149 103.495C115.768 103.294 113.948 102.007 113.736 100.394C113.432 98.0835 113.463 95.6364 112.441 93.2958C111.873 91.129 109.893 90.0313 107.632 89.7781C100.543 88.984 94.3894 85.5397 90.0501 79.7707C81.0434 83.8597 71.6054 85.6341 61.7429 85.1466C62.7726 90.7744 62.8162 95.9233 62.6892 101.125C62.2433 103.01 61.9687 105.045 60.5326 106.261C57.7085 108.653 53.0353 108.539 51.659 106.157C49.9942 103.276 52.7013 101.702 52.5918 100.758C51.94 95.1421 49.2539 89.7763 46.3153 84.7861C46.0844 84.3939 45.522 84.3285 45.3041 84.2052C42.3264 82.5192 36.3924 79.7462 33.9995 77.1114C33.7375 76.823 33.2967 76.9959 33.217 76.9313C32.558 76.3971 33.4791 79.2442 40.2196 82.8073C40.7645 83.0953 41.0412 83.5676 41.0374 84.0209C37.5952 87.3327 33.5744 89.8744 29.6006 92.8254C27.2088 94.6015 27.5097 101.304 23.4558 101.675C21.7716 101.829 19.784 100.882 19.0462 99.0345C18.0363 96.5045 18.5447 93.3464 19.5377 90.7933C21.8734 84.7874 26.8122 80.9253 29.1073 74.9672C29.0705 73.8499 28.2161 72.4943 27.6597 71.4736C25.1336 66.84 23.7228 62.0882 22.9673 56.8959L17.9551 54.6084C12.9089 52.3053 9.16525 48.1471 7.28676 42.8454L2.09953 44.1617C1.68663 44.2665 1.28521 44.0841 1.14903 43.82C0.352125 42.2746 5.62482 41.6835 6.31666 41.0728C6.84663 40.71 6.64201 38.7918 6.06551 38.4976C3.93401 37.4099 0.162537 38.0204 0.00670054 36.7648C-0.202208 35.0815 4.52864 36.3076 6.53443 36.6177C6.01908 32.1777 8.93299 28.7456 10.1871 24.7972C11.3362 21.179 12.2951 4.20847 17.4648 8.65572C20.3613 11.1474 22.616 14.0536 24.8198 17.4619C28.8437 16.9834 32.7559 17.1027 36.8522 18.0714C38.8553 15.7934 46.0598 8.55037 48.5416 9.30344C51.2779 10.1338 51.4739 24.1244 51.7476 26.6777C52.1027 29.991 54.3742 32.9273 54.1068 36.4471L59.6845 35.9713C60.1156 35.9345 60.5741 36.1815 60.7273 36.4334C61.7787 38.1627 55.6017 37.6114 54.4926 38.2461C53.9156 38.7357 54.1398 40.3364 54.1913 41.141C55.5574 41.6543 59.948 42.0569 59.7261 43.4734C59.4394 45.3039 54.0502 41.987 53.4967 43.3931C53.3645 43.7289 53.4157 44.1631 54.0576 44.4733C59.1305 46.9248 66.4241 45.4458 71.861 44.2125C82.5158 41.7957 92.2894 39.7289 102.473 44.9528C113.877 39.5332 118.821 24.0201 110.212 13.8158C107.808 10.9668 101.483 6.87198 104.681 2.21282C106.456 -0.373551 110.12 -0.563254 112.831 0.972957C122.562 6.48607 126.323 19.8339 124.306 30.0994C122.344 40.0892 118.174 46.2772 109.355 52.0797C114.318 60.5537 111.806 66.3194 113.585 73.4594C115.055 79.3626 118.617 78.3437 119.92 82.3372C121.638 87.6012 123.683 96.9255 121.362 101.768ZM21.3817 35.5996C22.1225 34.8746 20.2913 32.6512 18.1145 32.4629C16.7076 32.3412 15.2245 32.7427 14.2492 33.8726C13.9082 34.2676 14.0383 34.7581 14.375 34.925C14.5273 35.0005 14.8575 34.9826 15.1139 34.7468C18.3446 31.775 20.5454 36.4182 21.3817 35.5996ZM41.6479 36.6573C41.9486 35.9849 40.1659 33.6613 37.4264 33.6587C35.9293 33.6573 34.3441 34.1592 33.3414 35.4525C33.0262 35.859 33.3284 36.3716 33.5608 36.5029C33.7135 36.5891 34.033 36.5622 34.2763 36.3302C38.2258 32.5628 40.9159 38.294 41.6479 36.6573ZM27.0276 44.5262C29.0187 46.3213 31.939 46.3601 33.6657 44.5324C34.1934 43.9739 34.4921 42.8736 33.6297 42.6005C32.5382 43.9897 31.1412 44.9307 29.5647 44.4439C28.2703 44.0442 26.5134 43.0678 26.9446 41.3468C27.095 40.7467 28.7046 40.3878 28.1432 39.4386C27.616 38.5476 25.4764 38.3003 24.7288 39.0268C23.9356 39.7977 25.2261 40.7004 25.3781 41.3121C25.7157 42.6708 24.38 43.463 23.4796 43.6754C20.6731 44.3377 20.8684 41.1455 19.7777 42.0031C19.0838 42.5487 20.1324 44.4088 21.826 44.9101C24.8489 45.805 25.2176 42.8944 27.0276 44.5262Z" fill="#330F0D"/>
<path d="M89.3889 99.241C89.2346 99.4722 88.863 99.6453 88.8578 99.9762C88.3181 100.246 87.9842 100.745 87.6066 101.19C85.3236 103.885 81.7313 104.754 78.1351 103.937C76.1964 103.497 75.2339 101.819 75.7163 100.042C76.1943 98.2807 77.9161 98.0241 79.4777 96.9228C80.9603 95.8771 82.6705 92.6172 82.1696 90.7555C81.5364 88.4022 79.1545 87.1749 78.9794 84.6897C82.7593 84.0876 86.1103 82.8047 89.7844 81.3441C91.0795 83.5006 93.5095 84.555 94.8061 86.4689C95.7589 87.8752 95.0354 90.9614 94.3044 92.29C92.8287 94.9724 90.94 96.917 89.3889 99.241Z" fill="#330F0D"/>
</g>
<defs>
<clipPath id="clip0_348_2089">
<rect width="151" height="108" fill="white"/>
</clipPath>
</defs>
</svg>
